Alegreya Sans SC-Bold Italic.ufo
<glyph name="numbersign" format="1">
  <advance width="547"/>
  <unicode hex="0023"/>
  <outline>
    <contour>
      <point x="374" y="573" type="line"/>
      <point x="270" y="41" type="line"/>
      <point x="277" y="32" type="line"/>
      <point x="351" y="32" type="line"/>
      <point x="456" y="563" type="line"/>
      <point x="447" y="573" type="line"/>
    </contour>
    <contour>
      <point x="26" y="252" type="line"/>
      <point x="20" y="185" type="line"/>
      <point x="28" y="177" type="line"/>
      <point x="487" y="177" type="line"/>
      <point x="493" y="243" type="line"/>
      <point x="485" y="252" type="line"/>
    </contour>
    <contour>
      <point x="190" y="573" type="line"/>
      <point x="86" y="41" type="line"/>
      <point x="93" y="32" type="line"/>
      <point x="167" y="32" type="line"/>
      <point x="272" y="563" type="line"/>
      <point x="263" y="573" type="line"/>
    </contour>
    <contour>
      <point x="59" y="432" type="line"/>
      <point x="53" y="365" type="line"/>
      <point x="61" y="357" type="line"/>
      <point x="520" y="357" type="line"/>
      <point x="526" y="423" type="line"/>
      <point x="518" y="432" type="line"/>
    </contour>
  </outline>
</glyph>
<glyph name="dollar" format="1">
  <advance width="446"/>
  <unicode hex="0024"/>
  <outline>
    <contour>
      <point x="169" y="52" type="line"/>
      <point x="149" y="-124" type="line"/>
      <point x="158" y="-134" type="line"/>
      <point x="222" y="-134" type="line"/>
      <point x="244" y="52" type="line"/>
    </contour>
    <contour>
      <point x="241" y="643" type="line"/>
      <point x="219" y="451" type="line"/>
      <point x="293" y="451" type="line"/>
      <point x="315" y="632" type="line"/>
      <point x="304" y="643" type="line"/>
    </contour>
    <component base="s" xOffset="-1"/>
  </outline>
</glyph>
<glyph name="percent" format="1">
  <advance width="859"/>
  <unicode hex="0025"/>
  <outline>
    <contour>
      <point x="162" y="516" type="move"/>
    </contour>
    <component base="zero.numr" xOffset="2" yOffset="55" yScale="0.92"/>
    <component base="fraction" xOffset="377"/>
    <component base="zero.dnom" xOffset="479" yScale="0.92"/>
  </outline>
</glyph>
<glyph name="ampersand" format="1">
  <advance width="713"/>
  <unicode hex="0026"/>
  <outline>
    <contour>
      <point x="632" y="711" type="line"/>
      <point x="543" y="512"/>
      <point x="316" y="326"/>
      <point x="72" y="243" type="curve"/>
      <point x="106" y="160" type="line"/>
      <point x="352" y="248"/>
      <point x="630" y="476"/>
      <point x="694" y="628" type="curve"/>
      <point x="685" y="661"/>
      <point x="668" y="688"/>
      <point x="643" y="711" type="curve"/>
    </contour>
    <contour>
      <point x="120" y="513"/>
      <point x="31" y="411"/>
      <point x="31" y="255" type="curve" smooth="yes"/>
      <point x="31" y="88"/>
      <point x="131" y="-12"/>
      <point x="294" y="-12" type="curve" smooth="yes"/>
      <point x="462" y="-12"/>
      <point x="558" y="97"/>
      <point x="562" y="284" type="curve"/>
      <point x="480" y="284" type="line"/>
      <point x="472" y="274" type="line"/>
      <point x="471" y="154"/>
      <point x="411" y="80"/>
      <point x="302" y="80" type="curve" smooth="yes"/>
      <point x="196" y="80"/>
      <point x="140" y="149"/>
      <point x="140" y="267" type="curve" smooth="yes"/>
      <point x="140" y="367"/>
      <point x="180" y="430"/>
      <point x="246" y="430" type="curve" smooth="yes"/>
      <point x="275" y="430"/>
      <point x="293" y="418"/>
      <point x="295" y="392" type="curve" smooth="yes"/>
      <point x="296" y="372"/>
      <point x="287" y="347"/>
      <point x="258" y="327" type="curve"/>
      <point x="342" y="329" type="line"/>
      <point x="366" y="358"/>
      <point x="375" y="392"/>
      <point x="375" y="418" type="curve" smooth="yes"/>
      <point x="375" y="472"/>
      <point x="333" y="513"/>
      <point x="250" y="513" type="curve" smooth="yes"/>
    </contour>
    <contour>
      <point x="481" y="284" type="line"/>
      <point x="524" y="193" type="line"/>
      <point x="681" y="193" type="line"/>
      <point x="692" y="274" type="line"/>
      <point x="684" y="284" type="line"/>
    </contour>
  </outline>
</glyph>
<glyph name="parenleft" format="1">
  <advance width="296"/>
  <unicode hex="0028"/>
  <outline>
    <contour>
      <point x="278" y="661" type="line"/>
      <point x="99" y="542"/>
      <point x="59" y="311"/>
      <point x="59" y="152" type="curve" smooth="yes"/>
      <point x="59" y="16"/>
      <point x="93" y="-70"/>
      <point x="179" y="-139" type="curve"/>
      <point x="191" y="-139" type="line"/>
      <point x="242" y="-100" type="line"/>
      <point x="244" y="-89" type="line"/>
      <point x="184" y="-30"/>
      <point x="163" y="41"/>
      <point x="163" y="148" type="curve" smooth="yes"/>
      <point x="163" y="274"/>
      <point x="191" y="500"/>
      <point x="330" y="610" type="curve"/>
      <point x="331" y="621" type="line"/>
      <point x="289" y="661" type="line"/>
    </contour>
  </outline>
</glyph>
<glyph name="period" format="1">
  <advance width="230"/>
  <unicode hex="002E"/>
  <outline>
    <contour>
      <point x="53" y="132"/>
      <point x="26" y="104"/>
      <point x="26" y="60" type="curve" smooth="yes"/>
      <point x="26" y="18"/>
      <point x="49" y="-7"/>
      <point x="92" y="-7" type="curve" smooth="yes"/>
      <point x="135" y="-7"/>
      <point x="162" y="21"/>
      <point x="162" y="66" type="curve" smooth="yes"/>
      <point x="162" y="107"/>
      <point x="138" y="132"/>
      <point x="97" y="132" type="curve" smooth="yes"/>
    </contour>
  </outline>
</glyph>
<glyph name="three" format="1">
  <advance width="430"/>
  <unicode hex="0033"/>
  <outline>
    <contour>
      <point x="166" y="512"/>
      <point x="111" y="492"/>
      <point x="51" y="453" type="curve"/>
      <point x="58" y="358" type="line"/>
      <point x="72" y="358" type="line"/>
      <point x="118" y="389"/>
      <point x="158" y="407"/>
      <point x="197" y="407" type="curve" smooth="yes"/>
      <point x="236" y="407"/>
      <point x="259" y="387"/>
      <point x="259" y="355" type="curve" smooth="yes"/>
      <point x="259" y="301"/>
      <point x="199" y="263"/>
      <point x="155" y="262" type="curve" smooth="yes"/>
      <point x="104" y="260" type="line"/>
      <point x="90" y="171" type="line"/>
      <point x="95" y="163" type="line"/>
      <point x="165" y="163" type="line"/>
      <point x="222" y="161"/>
      <point x="249" y="138"/>
      <point x="249" y="98" type="curve" smooth="yes"/>
      <point x="249" y="40"/>
      <point x="199" y="5"/>
      <point x="119" y="5" type="curve" smooth="yes"/>
      <point x="83" y="5"/>
      <point x="47" y="13"/>
      <point x="11" y="28" type="curve"/>
      <point x="0" y="19" type="line"/>
      <point x="-5" y="-84" type="line"/>
      <point x="26" y="-91"/>
      <point x="73" y="-95"/>
      <point x="107" y="-95" type="curve" smooth="yes"/>
      <point x="264" y="-95"/>
      <point x="375" y="-11"/>
      <point x="375" y="104" type="curve" smooth="yes"/>
      <point x="375" y="168"/>
      <point x="341" y="204"/>
      <point x="280" y="226" type="curve"/>
      <point x="280" y="231" type="line"/>
      <point x="358" y="268"/>
      <point x="395" y="334"/>
      <point x="395" y="387" type="curve" smooth="yes"/>
      <point x="395" y="461"/>
      <point x="328" y="512"/>
      <point x="227" y="512" type="curve" smooth="yes"/>
    </contour>
  </outline>
</glyph>
<glyph name="A" format="1">
  <advance width="583"/>
  <unicode hex="0041"/>
  <outline>
    <contour>
      <point x="272" y="643" type="line"/>
      <point x="-19" y="0" type="line"/>
      <point x="111" y="0" type="line"/>
      <point x="139" y="90" type="line"/>
      <point x="328" y="519" type="line"/>
      <point x="337" y="519" type="line"/>
      <point x="401" y="83" type="line"/>
      <point x="407" y="0" type="line"/>
      <point x="540" y="0" type="line"/>
      <point x="429" y="643" type="line"/>
    </contour>
    <contour>
      <point x="291" y="247" type="line"/>
      <point x="152" y="250" type="line"/>
      <point x="139" y="145" type="line"/>
      <point x="270" y="148" type="line"/>
      <point x="409" y="146" type="line"/>
      <point x="422" y="249" type="line"/>
    </contour>
    <contour>
      <point x="564" y="10" type="move" name="ogonek"/>
    </contour>
    <contour>
      <point x="345" y="643" type="move" name="top"/>
    </contour>
  </outline>
</glyph>
<glyph name="D" format="1">
  <advance width="641"/>
  <unicode hex="0044"/>
  <outline>
    <contour>
      <point x="129" y="643" type="line"/>
      <point x="231" y="537" type="line"/>
      <point x="262" y="539"/>
      <point x="333" y="542"/>
      <point x="357" y="542" type="curve" smooth="yes"/>
      <point x="445" y="542"/>
      <point x="488" y="490"/>
      <point x="488" y="375" type="curve" smooth="yes"/>
      <point x="488" y="183"/>
      <point x="418" y="95"/>
      <point x="303" y="95" type="curve" smooth="yes"/>
      <point x="278" y="95"/>
      <point x="205" y="100"/>
      <point x="167" y="106" type="curve"/>
      <point x="49" y="0" type="line"/>
      <point x="112" y="-4"/>
      <point x="225" y="-7"/>
      <point x="274" y="-7" type="curve" smooth="yes"/>
      <point x="504" y="-7"/>
      <point x="628" y="147"/>
      <point x="628" y="396" type="curve" smooth="yes"/>
      <point x="628" y="557"/>
      <point x="534" y="647"/>
      <point x="373" y="647" type="curve"/>
    </contour>
    <contour>
      <point x="129" y="643" type="line"/>
      <point x="80" y="192" type="line"/>
      <point x="49" y="0" type="line"/>
      <point x="181" y="0" type="line"/>
      <point x="200" y="204" type="line"/>
      <point x="263" y="643" type="line"/>
    </contour>
    <contour>
      <point x="316" y="322" type="move" name="center"/>
    </contour>
    <contour>
      <point x="339" y="643" type="move" name="top"/>
    </contour>
  </outline>
</glyph>
<glyph name="I" format="1">
  <advance width="289"/>
  <unicode hex="0049"/>
  <outline>
    <contour>
      <point x="128" y="643" type="line"/>
      <point x="79" y="192" type="line"/>
      <point x="48" y="0" type="line"/>
      <point x="180" y="0" type="line"/>
      <point x="200" y="204" type="line"/>
      <point x="262" y="643" type="line"/>
    </contour>
    <contour>
      <point x="232" y="10" type="move" name="ogonek"/>
    </contour>
    <contour>
      <point x="194" y="643" type="move" name="top"/>
    </contour>
  </outline>
</glyph>
<glyph name="K" format="1">
  <advance width="569"/>
  <unicode hex="004B"/>
  <outline>
    <contour>
      <point x="468" y="643" type="line"/>
      <point x="423" y="582" type="line"/>
      <point x="217" y="343" type="line"/>
      <point x="216" y="334" type="line"/>
      <point x="274" y="219"/>
      <point x="337" y="107"/>
      <point x="402" y="-2" type="curve"/>
      <point x="416" y="-10" type="line"/>
      <point x="460" y="-5"/>
      <point x="503" y="2"/>
      <point x="548" y="13" type="curve"/>
      <point x="552" y="28" type="line"/>
      <point x="480" y="126"/>
      <point x="412" y="229"/>
      <point x="351" y="335" type="curve"/>
      <point x="610" y="643" type="line"/>
    </contour>
    <contour>
      <point x="129" y="643" type="line"/>
      <point x="80" y="192" type="line"/>
      <point x="48" y="0" type="line"/>
      <point x="180" y="0" type="line"/>
      <point x="200" y="204" type="line"/>
      <point x="262" y="643" type="line"/>
    </contour>
    <contour>
      <point x="293" y="0" type="move" name="bottom"/>
    </contour>
    <contour>
      <point x="288" y="643" type="move" name="top"/>
    </contour>
  </outline>
</glyph>
<glyph name="M" format="1">
  <advance width="776"/>
  <unicode hex="004D"/>
  <outline>
    <contour>
      <point x="575" y="643" type="line"/>
      <point x="536" y="549" type="line"/>
      <point x="392" y="239" type="line"/>
      <point x="383" y="239" type="line"/>
      <point x="324" y="548" type="line"/>
      <point x="310" y="643" type="line"/>
      <point x="158" y="643" type="line"/>
      <point x="15" y="0" type="line"/>
      <point x="126" y="0" type="line"/>
      <point x="165" y="207" type="line"/>
      <point x="218" y="448" type="line"/>
      <point x="227" y="448" type="line"/>
      <point x="308" y="68" type="line"/>
      <point x="411" y="68" type="line"/>
      <point x="598" y="448" type="line"/>
      <point x="607" y="448" type="line"/>
      <point x="598" y="195" type="line"/>
      <point x="583" y="0" type="line"/>
      <point x="700" y="0" type="line"/>
      <point x="725" y="643" type="line"/>
    </contour>
  </outline>
</glyph>
<glyph name="R" format="1">
  <advance width="574"/>
  <unicode hex="0052"/>
  <outline>
    <contour>
      <point x="130" y="643" type="line"/>
      <point x="192" y="541" type="line"/>
      <point x="315" y="547" type="line"/>
      <point x="380" y="544"/>
      <point x="412" y="516"/>
      <point x="412" y="459" type="curve" smooth="yes"/>
      <point x="412" y="387"/>
      <point x="380" y="340"/>
      <point x="313" y="317" type="curve"/>
      <point x="137" y="324" type="line"/>
      <point x="124" y="219" type="line"/>
      <point x="312" y="219" type="line"/>
      <point x="458" y="251"/>
      <point x="552" y="353"/>
      <point x="552" y="481" type="curve" smooth="yes"/>
      <point x="552" y="586"/>
      <point x="479" y="644"/>
      <point x="361" y="644" type="curve"/>
    </contour>
    <contour>
      <point x="129" y="643" type="line"/>
      <point x="79" y="192" type="line"/>
      <point x="48" y="0" type="line"/>
      <point x="180" y="0" type="line"/>
      <point x="200" y="204" type="line"/>
      <point x="262" y="643" type="line"/>
    </contour>
    <contour>
      <point x="272" y="284" type="line"/>
      <point x="304" y="187"/>
      <point x="343" y="92"/>
      <point x="383" y="0" type="curve"/>
      <point x="395" y="-10" type="line"/>
      <point x="440" y="-7"/>
      <point x="484" y="2"/>
      <point x="527" y="16" type="curve"/>
      <point x="530" y="31" type="line"/>
      <point x="480" y="114"/>
      <point x="434" y="199"/>
      <point x="393" y="286" type="curve"/>
    </contour>
    <contour>
      <point x="259" y="0" type="move" name="bottom"/>
    </contour>
    <contour>
      <point x="338" y="643" type="move" name="top"/>
    </contour>
  </outline>
</glyph>
<glyph name="V" format="1">
  <advance width="570"/>
  <unicode hex="0056"/>
  <outline>
    <contour>
      <point x="490" y="643" type="line"/>
      <point x="461" y="553" type="line"/>
      <point x="273" y="124" type="line"/>
      <point x="265" y="124" type="line"/>
      <point x="199" y="560" type="line"/>
      <point x="194" y="643" type="line"/>
      <point x="60" y="643" type="line"/>
      <point x="172" y="0" type="line"/>
      <point x="330" y="0" type="line"/>
      <point x="619" y="643" type="line"/>
    </contour>
  </outline>
</glyph>
<glyph name="backslash" format="1">
  <advance width="350"/>
  <unicode hex="005C"/>
  <outline>
    <contour>
      <point x="35" y="668" type="line"/>
      <point x="241" y="-115" type="line"/>
      <point x="331" y="-115" type="line"/>
      <point x="339" y="-104" type="line"/>
      <point x="133" y="680" type="line"/>
      <point x="45" y="680" type="line"/>
    </contour>
  </outline>
</glyph>
<glyph name="underscore" format="1">
  <advance width="445"/>
  <unicode hex="005F"/>
  <outline>
    <contour>
      <point x="-48" y="-89" type="line"/>
      <point x="-63" y="-162" type="line"/>
      <point x="-55" y="-171" type="line"/>
      <point x="404" y="-171" type="line"/>
      <point x="420" y="-98" type="line"/>
      <point x="412" y="-89" type="line"/>
    </contour>
  </outline>
</glyph>
<glyph name="c" format="1">
  <advance width="446"/>
  <unicode hex="0063"/>
  <outline>
    <contour>
      <point x="137" y="511"/>
      <point x="33" y="398"/>
      <point x="33" y="212" type="curve" smooth="yes"/>
      <point x="33" y="72"/>
      <point x="108" y="-8"/>
      <point x="259" y="-8" type="curve" smooth="yes"/>
      <point x="299" y="-8"/>
      <point x="336" y="-0"/>
      <point x="379" y="16" type="curve"/>
      <point x="402" y="122" type="line"/>
      <point x="391" y="128" type="line"/>
      <point x="356" y="107"/>
      <point x="309" y="94"/>
      <point x="270" y="94" type="curve" smooth="yes"/>
      <point x="197" y="94"/>
      <point x="163" y="141"/>
      <point x="163" y="228" type="curve" smooth="yes"/>
      <point x="163" y="351"/>
      <point x="212" y="411"/>
      <point x="301" y="411" type="curve" smooth="yes"/>
      <point x="345" y="411"/>
      <point x="385" y="397"/>
      <point x="412" y="374" type="curve"/>
      <point x="423" y="379" type="line"/>
      <point x="457" y="485" type="line"/>
      <point x="421" y="502"/>
      <point x="370" y="511"/>
      <point x="320" y="511" type="curve" smooth="yes"/>
    </contour>
    <contour>
      <point x="269" y="0" type="move" name="bottom"/>
    </contour>
    <contour>
      <point x="287" y="505" type="move" name="top"/>
    </contour>
  </outline>
</glyph>
<glyph name="g" format="1">
  <advance width="511"/>
  <unicode hex="0067"/>
  <outline>
    <contour>
      <point x="142" y="511"/>
      <point x="32" y="397"/>
      <point x="32" y="218" type="curve" smooth="yes"/>
      <point x="32" y="67"/>
      <point x="111" y="-8"/>
      <point x="259" y="-8" type="curve" smooth="yes"/>
      <point x="314" y="-8"/>
      <point x="367" y="2"/>
      <point x="436" y="25" type="curve"/>
      <point x="453" y="154" type="line"/>
      <point x="462" y="221" type="line"/>
      <point x="350" y="214" type="line"/>
      <point x="342" y="134" type="line"/>
      <point x="338" y="101" type="line"/>
      <point x="310" y="91"/>
      <point x="295" y="88"/>
      <point x="272" y="88" type="curve" smooth="yes"/>
      <point x="182" y="88"/>
      <point x="160" y="128"/>
      <point x="160" y="216" type="curve" smooth="yes"/>
      <point x="160" y="357"/>
      <point x="213" y="412"/>
      <point x="311" y="412" type="curve" smooth="yes"/>
      <point x="357" y="412"/>
      <point x="390" y="401"/>
      <point x="440" y="371" type="curve"/>
      <point x="451" y="371" type="line"/>
      <point x="497" y="484" type="line"/>
      <point x="445" y="502"/>
      <point x="394" y="511"/>
      <point x="338" y="511" type="curve" smooth="yes"/>
    </contour>
    <contour>
      <point x="275" y="0" type="move" name="bottom"/>
    </contour>
    <contour>
      <point x="296" y="505" type="move" name="top"/>
    </contour>
  </outline>
</glyph>
<glyph name="h" format="1">
  <advance width="593"/>
  <unicode hex="0068"/>
  <outline>
    <contour>
      <point x="431" y="505" type="line"/>
      <point x="393" y="150" type="line"/>
      <point x="369" y="0" type="line"/>
      <point x="491" y="0" type="line"/>
      <point x="506" y="161" type="line"/>
      <point x="555" y="505" type="line"/>
    </contour>
    <contour>
      <point x="107" y="505" type="line"/>
      <point x="69" y="150" type="line"/>
      <point x="45" y="0" type="line"/>
      <point x="167" y="0" type="line"/>
      <point x="182" y="161" type="line"/>
      <point x="231" y="505" type="line"/>
    </contour>
    <contour>
      <point x="174" y="200" type="line"/>
      <point x="288" y="201" type="line"/>
      <point x="408" y="201" type="line"/>
      <point x="421" y="303" type="line"/>
      <point x="308" y="302" type="line"/>
      <point x="186" y="303" type="line"/>
    </contour>
    <contour>
      <point x="327" y="253" type="move" name="center"/>
    </contour>
    <contour>
      <point x="328" y="505" type="move" name="top"/>
    </contour>
  </outline>
</glyph>
<glyph name="j" format="1">
  <advance width="314"/>
  <unicode hex="006A"/>
  <outline>
    <contour>
      <point x="137" y="505" type="line"/>
      <point x="99" y="154" type="line"/>
      <point x="91" y="98" type="line"/>
      <point x="85" y="46"/>
      <point x="60" y="18"/>
      <point x="-4" y="-12" type="curve"/>
      <point x="-5" y="-22" type="line"/>
      <point x="27" y="-88" type="line"/>
      <point x="150" y="-41"/>
      <point x="194" y="7"/>
      <point x="205" y="95" type="curve"/>
      <point x="213" y="166" type="line"/>
      <point x="260" y="505" type="line"/>
    </contour>
    <contour>
      <point x="50" y="505" type="line"/>
      <point x="32" y="420" type="line"/>
      <point x="38" y="412" type="line"/>
      <point x="141" y="414" type="line"/>
      <point x="151" y="505" type="line"/>
    </contour>
  </outline>
</glyph>
<glyph name="k" format="1">
  <advance width="508"/>
  <unicode hex="006B"/>
  <outline>
    <contour>
      <point x="392" y="505" type="line"/>
      <point x="355" y="454" type="line"/>
      <point x="190" y="268" type="line"/>
      <point x="190" y="260" type="line"/>
      <point x="236" y="170"/>
      <point x="287" y="83"/>
      <point x="338" y="-2" type="curve"/>
      <point x="353" y="-9" type="line"/>
      <point x="394" y="-6"/>
      <point x="436" y="1"/>
      <point x="476" y="11" type="curve"/>
      <point x="481" y="26" type="line"/>
      <point x="422" y="103"/>
      <point x="366" y="183"/>
      <point x="317" y="265" type="curve"/>
      <point x="526" y="505" type="line"/>
    </contour>
    <contour>
      <point x="106" y="505" type="line"/>
      <point x="67" y="150" type="line"/>
      <point x="44" y="0" type="line"/>
      <point x="166" y="0" type="line"/>
      <point x="181" y="161" type="line"/>
      <point x="230" y="505" type="line"/>
    </contour>
    <contour>
      <point x="244" y="0" type="move" name="bottom"/>
    </contour>
  </outline>
</glyph>
<glyph name="s" format="1">
  <advance width="436"/>
  <unicode hex="0073"/>
  <outline>
    <contour>
      <point x="142" y="512"/>
      <point x="64" y="432"/>
      <point x="64" y="340" type="curve" smooth="yes"/>
      <point x="64" y="196"/>
      <point x="263" y="208"/>
      <point x="263" y="135" type="curve" smooth="yes"/>
      <point x="263" y="107"/>
      <point x="235" y="81"/>
      <point x="195" y="81" type="curve" smooth="yes"/>
      <point x="155" y="81"/>
      <point x="98" y="105"/>
      <point x="58" y="146" type="curve"/>
      <point x="45" y="138" type="line"/>
      <point x="16" y="23" type="line"/>
      <point x="68" y="0"/>
      <point x="130" y="-8"/>
      <point x="174" y="-8" type="curve" smooth="yes"/>
      <point x="319" y="-8"/>
      <point x="386" y="82"/>
      <point x="386" y="165" type="curve" smooth="yes"/>
      <point x="386" y="308"/>
      <point x="188" y="297"/>
      <point x="188" y="368" type="curve" smooth="yes"/>
      <point x="188" y="394"/>
      <point x="211" y="419"/>
      <point x="252" y="419" type="curve" smooth="yes"/>
      <point x="284" y="419"/>
      <point x="322" y="404"/>
      <point x="359" y="372" type="curve"/>
      <point x="378" y="377" type="line"/>
      <point x="408" y="486" type="line"/>
      <point x="370" y="502"/>
      <point x="320" y="512"/>
      <point x="273" y="512" type="curve" smooth="yes"/>
    </contour>
    <contour>
      <point x="200" y="0" type="move" name="bottom"/>
    </contour>
    <contour>
      <point x="248" y="505" type="move" name="top"/>
    </contour>
  </outline>
</glyph>
<glyph name="t" format="1">
  <advance width="437"/>
  <unicode hex="0074"/>
  <outline>
    <contour>
      <point x="191" y="490" type="line"/>
      <point x="153" y="150" type="line"/>
      <point x="129" y="0" type="line"/>
      <point x="251" y="0" type="line"/>
      <point x="266" y="161" type="line"/>
      <point x="311" y="490" type="line"/>
    </contour>
    <contour>
      <point x="63" y="505" type="line"/>
      <point x="44" y="410" type="line"/>
      <point x="51" y="401" type="line"/>
      <point x="153" y="407" type="line"/>
      <point x="328" y="407" type="line"/>
      <point x="426" y="401" type="line"/>
      <point x="446" y="495" type="line"/>
      <point x="440" y="505" type="line"/>
    </contour>
    <contour>
      <point x="227" y="0" type="move" name="bottom"/>
    </contour>
    <contour>
      <point x="231" y="253" type="move" name="center"/>
    </contour>
    <contour>
      <point x="251" y="505" type="move" name="top"/>
    </contour>
  </outline>
</glyph>
<glyph name="u" format="1">
  <advance width="545"/>
  <unicode hex="0075"/>
  <outline>
    <contour>
      <point x="397" y="505" type="line"/>
      <point x="363" y="189" type="line" smooth="yes"/>
      <point x="356" y="123"/>
      <point x="320" y="91"/>
      <point x="255" y="91" type="curve" smooth="yes"/>
      <point x="196" y="91"/>
      <point x="168" y="116"/>
      <point x="168" y="167" type="curve" smooth="yes"/>
      <point x="168" y="174"/>
      <point x="169" y="181"/>
      <point x="170" y="189" type="curve" smooth="yes"/>
      <point x="215" y="505" type="line"/>
      <point x="93" y="505" type="line"/>
      <point x="64" y="250" type="line"/>
      <point x="53" y="171" type="line" smooth="yes"/>
      <point x="51" y="159"/>
      <point x="50" y="148"/>
      <point x="50" y="137" type="curve" smooth="yes"/>
      <point x="50" y="43"/>
      <point x="121" y="-8"/>
      <point x="243" y="-8" type="curve" smooth="yes"/>
      <point x="381" y="-8"/>
      <point x="461" y="57"/>
      <point x="475" y="171" type="curve" smooth="yes"/>
      <point x="485" y="248" type="line"/>
      <point x="520" y="505" type="line"/>
    </contour>
    <contour>
      <point x="460" y="10" type="move" name="ogonek"/>
    </contour>
    <contour>
      <point x="304" y="505" type="move" name="top"/>
    </contour>
  </outline>
</glyph>
<glyph name="v" format="1">
  <advance width="507"/>
  <unicode hex="0076"/>
  <outline>
    <contour>
      <point x="408" y="505" type="line"/>
      <point x="384" y="425" type="line"/>
      <point x="241" y="112" type="line"/>
      <point x="233" y="112" type="line"/>
      <point x="182" y="432" type="line"/>
      <point x="177" y="505" type="line"/>
      <point x="53" y="505" type="line"/>
      <point x="147" y="0" type="line"/>
      <point x="294" y="0" type="line"/>
      <point x="528" y="505" type="line"/>
    </contour>
  </outline>
</glyph>
<glyph name="x" format="1">
  <advance width="525"/>
  <unicode hex="0078"/>
  <outline>
    <contour>
      <point x="400" y="505" type="line"/>
      <point x="371" y="455" type="line"/>
      <point x="281" y="336" type="line"/>
      <point x="220" y="450" type="line"/>
      <point x="202" y="505" type="line"/>
      <point x="56" y="505" type="line"/>
      <point x="195" y="254" type="line"/>
      <point x="-6" y="0" type="line"/>
      <point x="122" y="0" type="line"/>
      <point x="152" y="48" type="line"/>
      <point x="252" y="173" type="line"/>
      <point x="317" y="54" type="line"/>
      <point x="335" y="0" type="line"/>
      <point x="479" y="0" type="line"/>
      <point x="341" y="258" type="line"/>
      <point x="532" y="505" type="line"/>
    </contour>
  </outline>
</glyph>
<glyph name="y" format="1">
  <advance width="485"/>
  <unicode hex="0079"/>
  <outline>
    <contour>
      <point x="384" y="505" type="line"/>
      <point x="363" y="463" type="line"/>
      <point x="250" y="289" type="line"/>
      <point x="243" y="289" type="line"/>
      <point x="182" y="468" type="line"/>
      <point x="175" y="505" type="line"/>
      <point x="46" y="505" type="line"/>
      <point x="198" y="93" type="line"/>
      <point x="238" y="93" type="line"/>
      <point x="510" y="505" type="line"/>
    </contour>
    <contour>
      <point x="177" y="218" type="line"/>
      <point x="169" y="138" type="line"/>
      <point x="146" y="0" type="line"/>
      <point x="268" y="0" type="line"/>
      <point x="280" y="138" type="line"/>
      <point x="294" y="218" type="line"/>
    </contour>
    <contour>
      <point x="274" y="505" type="move" name="top"/>
    </contour>
  </outline>
</glyph>
<glyph name="cent" format="1">
  <advance width="388"/>
  <unicode hex="00A2"/>
  <outline>
    <contour>
      <point x="150" y="80" type="line"/>
      <point x="121" y="-112" type="line" smooth="yes"/>
      <point x="128" y="-123" type="line" smooth="yes"/>
      <point x="193" y="-123" type="line" smooth="yes"/>
      <point x="224" y="80" type="line"/>
    </contour>
    <contour>
      <point x="240" y="655" type="line" smooth="yes"/>
      <point x="211" y="463" type="line"/>
      <point x="286" y="463" type="line"/>
      <point x="314" y="645" type="line" smooth="yes"/>
      <point x="303" y="655" type="line" smooth="yes"/>
    </contour>
    <contour>
      <point x="109" y="510"/>
      <point x="29" y="374"/>
      <point x="29" y="213" type="curve" smooth="yes"/>
      <point x="29" y="94"/>
      <point x="73" y="47"/>
      <point x="167" y="33" type="curve"/>
      <point x="183" y="33" type="line"/>
      <point x="250" y="52"/>
      <point x="296" y="86"/>
      <point x="342" y="159" type="curve"/>
      <point x="306" y="204" type="line"/>
      <point x="291" y="205" type="line"/>
      <point x="254" y="142"/>
      <point x="221" y="125"/>
      <point x="192" y="125" type="curve" smooth="yes"/>
      <point x="152" y="125"/>
      <point x="132" y="155"/>
      <point x="132" y="233" type="curve" smooth="yes"/>
      <point x="132" y="356"/>
      <point x="177" y="427"/>
      <point x="254" y="427" type="curve" smooth="yes"/>
      <point x="278" y="427"/>
      <point x="297" y="418"/>
      <point x="323" y="392" type="curve"/>
      <point x="346" y="394" type="line"/>
      <point x="376" y="475" type="line"/>
      <point x="370" y="488" type="line"/>
      <point x="292" y="510" type="line"/>
    </contour>
    <contour>
      <point x="210" y="505" type="move" name="top"/>
    </contour>
    <contour>
      <point x="186" y="40" type="move" name="bottom"/>
    </contour>
  </outline>
</glyph>
<glyph name="sterling" format="1">
  <advance width="447"/>
  <unicode hex="00A3"/>
  <outline>
    <contour>
      <point x="214" y="595"/>
      <point x="134" y="531"/>
      <point x="121" y="414" type="curve" smooth="yes"/>
      <point x="93" y="177" type="line" smooth="yes"/>
      <point x="86" y="120"/>
      <point x="59" y="89"/>
      <point x="7" y="77" type="curve"/>
      <point x="-6" y="7" type="line"/>
      <point x="-2" y="0" type="line"/>
      <point x="258" y="0" type="line" smooth="yes"/>
      <point x="381" y="-3" type="line"/>
      <point x="401" y="88" type="line"/>
      <point x="398" y="95" type="line"/>
      <point x="297" y="88" type="line"/>
      <point x="152" y="88" type="line"/>
      <point x="152" y="91" type="line"/>
      <point x="182" y="113"/>
      <point x="197" y="139"/>
      <point x="202" y="185" type="curve" smooth="yes"/>
      <point x="235" y="433" type="line" smooth="yes"/>
      <point x="242" y="487"/>
      <point x="273" y="512"/>
      <point x="323" y="512" type="curve" smooth="yes"/>
      <point x="353" y="512"/>
      <point x="386" y="503"/>
      <point x="427" y="480" type="curve"/>
      <point x="436" y="486" type="line"/>
      <point x="453" y="579" type="line"/>
      <point x="414" y="589"/>
      <point x="378" y="595"/>
      <point x="342" y="595" type="curve" smooth="yes"/>
    </contour>
    <contour>
      <point x="42" y="343" type="line"/>
      <point x="29" y="280" type="line"/>
      <point x="32" y="273" type="line"/>
      <point x="340" y="273" type="line"/>
      <point x="354" y="336" type="line"/>
      <point x="350" y="343" type="line"/>
    </contour>
  </outline>
</glyph>
<glyph name="currency" format="1">
  <advance width="435"/>
  <unicode hex="00A4"/>
  <outline>
    <contour>
      <point x="388" y="556" type="line"/>
      <point x="319" y="486" type="line"/>
      <point x="300" y="499"/>
      <point x="276" y="506"/>
      <point x="250" y="506" type="curve" smooth="yes"/>
      <point x="222" y="506"/>
      <point x="195" y="498"/>
      <point x="171" y="484" type="curve"/>
      <point x="117" y="553" type="line"/>
      <point x="105" y="554" type="line"/>
      <point x="43" y="495" type="line"/>
      <point x="42" y="483" type="line"/>
      <point x="104" y="424" type="line"/>
      <point x="85" y="397"/>
      <point x="73" y="368"/>
      <point x="73" y="335" type="curve" smooth="yes"/>
      <point x="73" y="313"/>
      <point x="78" y="290"/>
      <point x="87" y="273" type="curve"/>
      <point x="12" y="212" type="line"/>
      <point x="9" y="200" type="line"/>
      <point x="61" y="144" type="line"/>
      <point x="74" y="145" type="line"/>
      <point x="141" y="214" type="line"/>
      <point x="160" y="201"/>
      <point x="186" y="193"/>
      <point x="212" y="193" type="curve" smooth="yes"/>
      <point x="240" y="193"/>
      <point x="268" y="201"/>
      <point x="293" y="216" type="curve"/>
      <point x="346" y="148" type="line"/>
      <point x="357" y="147" type="line"/>
      <point x="421" y="206" type="line"/>
      <point x="420" y="218" type="line"/>
      <point x="358" y="278" type="line"/>
      <point x="377" y="303"/>
      <point x="388" y="332"/>
      <point x="388" y="365" type="curve" smooth="yes"/>
      <point x="388" y="387"/>
      <point x="383" y="410"/>
      <point x="374" y="427" type="curve"/>
      <point x="450" y="489" type="line"/>
      <point x="452" y="501" type="line"/>
      <point x="401" y="557" type="line"/>
    </contour>
    <contour>
      <point x="289" y="436"/>
      <point x="319" y="405"/>
      <point x="319" y="360" type="curve" smooth="yes"/>
      <point x="319" y="304"/>
      <point x="276" y="263"/>
      <point x="221" y="263" type="curve" smooth="yes"/>
      <point x="174" y="263"/>
      <point x="144" y="294"/>
      <point x="144" y="340" type="curve" smooth="yes"/>
      <point x="144" y="395"/>
      <point x="187" y="436"/>
      <point x="242" y="436" type="curve" smooth="yes"/>
    </contour>
  </outline>
</glyph>
<glyph name="brokenbar" format="1">
  <advance width="308"/>
  <unicode hex="00A6"/>
  <outline>
    <contour>
      <point x="173" y="795" type="line"/>
      <point x="122" y="374" type="line"/>
      <point x="130" y="366" type="line"/>
      <point x="220" y="377" type="line"/>
      <point x="274" y="794" type="line"/>
      <point x="266" y="803" type="line"/>
    </contour>
    <contour>
      <point x="94" y="150" type="line"/>
      <point x="45" y="-248" type="line"/>
      <point x="54" y="-260" type="line"/>
      <point x="143" y="-253" type="line"/>
      <point x="192" y="149" type="line"/>
      <point x="183" y="160" type="line"/>
    </contour>
  </outline>
</glyph>
<glyph name="section" format="1">
  <advance width="440"/>
  <unicode hex="00A7"/>
  <outline>
    <contour>
      <point x="122" y="416"/>
      <point x="39" y="340"/>
      <point x="39" y="255" type="curve" smooth="yes"/>
      <point x="39" y="124"/>
      <point x="241" y="101"/>
      <point x="241" y="33" type="curve" smooth="yes"/>
      <point x="241" y="9"/>
      <point x="213" y="-20"/>
      <point x="167" y="-20" type="curve" smooth="yes"/>
      <point x="126" y="-20"/>
      <point x="77" y="2"/>
      <point x="39" y="38" type="curve"/>
      <point x="26" y="30" type="line"/>
      <point x="0" y="-69" type="line"/>
      <point x="42" y="-87"/>
      <point x="102" y="-99"/>
      <point x="146" y="-99" type="curve" smooth="yes"/>
      <point x="260" y="-99"/>
      <point x="349" y="-28"/>
      <point x="349" y="57" type="curve" smooth="yes"/>
      <point x="349" y="183"/>
      <point x="148" y="204"/>
      <point x="148" y="287" type="curve" smooth="yes"/>
      <point x="148" y="321"/>
      <point x="182" y="354"/>
      <point x="250" y="376" type="curve"/>
      <point x="229" y="429" type="line"/>
    </contour>
    <contour>
      <point x="195" y="651"/>
      <point x="107" y="580"/>
      <point x="107" y="495" type="curve" smooth="yes"/>
      <point x="107" y="369"/>
      <point x="307" y="351"/>
      <point x="307" y="264" type="curve" smooth="yes"/>
      <point x="307" y="231"/>
      <point x="279" y="200"/>
      <point x="203" y="177" type="curve"/>
      <point x="229" y="127" type="line"/>
      <point x="338" y="141"/>
      <point x="416" y="215"/>
      <point x="416" y="296" type="curve" smooth="yes"/>
      <point x="416" y="427"/>
      <point x="216" y="451"/>
      <point x="216" y="518" type="curve" smooth="yes"/>
      <point x="216" y="542"/>
      <point x="243" y="569"/>
      <point x="283" y="569" type="curve" smooth="yes"/>
      <point x="312" y="569"/>
      <point x="350" y="556"/>
      <point x="388" y="528" type="curve"/>
      <point x="404" y="533" type="line"/>
      <point x="430" y="628" type="line"/>
      <point x="394" y="643"/>
      <point x="346" y="651"/>
      <point x="308" y="651" type="curve" smooth="yes"/>
    </contour>
  </outline>
</glyph>
<glyph name="logicalnot" format="1">
  <advance width="480"/>
  <unicode hex="00AC"/>
  <outline>
    <contour>
      <point x="38" y="305" type="line"/>
      <point x="22" y="226" type="line"/>
      <point x="29" y="217" type="line"/>
      <point x="341" y="217" type="line"/>
      <point x="320" y="53" type="line"/>
      <point x="329" y="44" type="line"/>
      <point x="409" y="51" type="line"/>
      <point x="439" y="297" type="line"/>
      <point x="434" y="305" type="line"/>
    </contour>
  </outline>
</glyph>
<glyph name="degree" format="1">
  <advance width="293"/>
  <unicode hex="00B0"/>
  <outline>
    <contour>
      <point x="120" y="652"/>
      <point x="51" y="588"/>
      <point x="51" y="510" type="curve" smooth="yes"/>
      <point x="51" y="445"/>
      <point x="99" y="394"/>
      <point x="166" y="394" type="curve" smooth="yes"/>
      <point x="244" y="394"/>
      <point x="313" y="458"/>
      <point x="313" y="537" type="curve" smooth="yes"/>
      <point x="313" y="602"/>
      <point x="265" y="652"/>
      <point x="198" y="652" type="curve" smooth="yes"/>
    </contour>
    <contour>
      <point x="229" y="596"/>
      <point x="256" y="568"/>
      <point x="256" y="531" type="curve" smooth="yes"/>
      <point x="256" y="486"/>
      <point x="218" y="451"/>
      <point x="173" y="451" type="curve" smooth="yes"/>
      <point x="135" y="451"/>
      <point x="108" y="479"/>
      <point x="108" y="516" type="curve" smooth="yes"/>
      <point x="108" y="561"/>
      <point x="146" y="596"/>
      <point x="191" y="596" type="curve" smooth="yes"/>
    </contour>
  </outline>
</glyph>
<glyph name="Thorn" format="1">
  <advance width="547"/>
  <unicode hex="00DE"/>
  <outline>
    <contour>
      <point x="130" y="643" type="line"/>
      <point x="79" y="192" type="line"/>
      <point x="49" y="0" type="line"/>
      <point x="182" y="0" type="line"/>
      <point x="201" y="204" type="line"/>
      <point x="263" y="643" type="line"/>
    </contour>
    <contour>
      <point x="125" y="541" type="line"/>
      <point x="187" y="439" type="line"/>
      <point x="309" y="445" type="line"/>
      <point x="378" y="441"/>
      <point x="405" y="411"/>
      <point x="405" y="352" type="curve" smooth="yes"/>
      <point x="405" y="275"/>
      <point x="367" y="221"/>
      <point x="304" y="205" type="curve"/>
      <point x="131" y="211" type="line"/>
      <point x="118" y="108" type="line"/>
      <point x="263" y="108" type="line"/>
      <point x="433" y="108"/>
      <point x="542" y="219"/>
      <point x="542" y="372" type="curve" smooth="yes"/>
      <point x="542" y="485"/>
      <point x="469" y="542"/>
      <point x="353" y="542" type="curve"/>
    </contour>
  </outline>
</glyph>
<glyph name="ae" format="1">
  <advance width="695"/>
  <unicode hex="00E6"/>
  <outline>
    <contour>
      <point x="285" y="504" type="line"/>
      <point x="-31" y="0" type="line"/>
      <point x="82" y="0" type="line"/>
      <point x="115" y="75" type="line"/>
      <point x="320" y="398" type="line"/>
      <point x="328" y="398" type="line"/>
      <point x="331" y="68" type="line"/>
      <point x="325" y="0" type="line"/>
      <point x="647" y="0" type="line"/>
      <point x="665" y="87" type="line"/>
      <point x="659" y="96" type="line"/>
      <point x="523" y="91" type="line"/>
      <point x="440" y="91" type="line"/>
      <point x="438" y="415" type="line"/>
      <point x="509" y="415" type="line"/>
      <point x="636" y="409" type="line"/>
      <point x="656" y="495" type="line"/>
      <point x="650" y="504" type="line"/>
    </contour>
    <contour>
      <point x="418" y="275" type="line"/>
      <point x="136" y="204" type="line"/>
      <point x="95" y="105" type="line"/>
      <point x="417" y="187" type="line"/>
      <point x="609" y="229" type="line"/>
      <point x="610" y="314" type="line"/>
      <point x="602" y="321" type="line"/>
    </contour>
    <contour>
      <point x="449" y="505" type="move" name="top"/>
    </contour>
  </outline>
</glyph>
<glyph name="eth" format="1">
  <advance width="562"/>
  <unicode hex="00F0"/>
  <outline>
    <contour>
      <point x="17" y="288" type="line"/>
      <point x="3" y="218" type="line"/>
      <point x="9" y="209" type="line"/>
      <point x="304" y="209" type="line"/>
      <point x="317" y="279" type="line"/>
      <point x="312" y="288" type="line"/>
    </contour>
    <component base="d" xOffset="8"/>
  </outline>
</glyph>
<glyph name="aogonek" format="1">
  <advance width="517"/>
  <unicode hex="0105"/>
  <outline>
    <contour>
      <point x="339" y="0" type="line"/>
      <point x="289" y="-59"/>
      <point x="276" y="-89"/>
      <point x="276" y="-122" type="curve" smooth="yes"/>
      <point x="276" y="-167"/>
      <point x="308" y="-196"/>
      <point x="354" y="-196" type="curve" smooth="yes"/>
      <point x="388" y="-196"/>
      <point x="419" y="-179"/>
      <point x="453" y="-148" type="curve"/>
      <point x="450" y="-90" type="line"/>
      <point x="443" y="-90" type="line"/>
      <point x="420" y="-110"/>
      <point x="400" y="-122"/>
      <point x="379" y="-122" type="curve" smooth="yes"/>
      <point x="363" y="-122"/>
      <point x="352" y="-114"/>
      <point x="352" y="-95" type="curve" smooth="yes"/>
      <point x="352" y="-75"/>
      <point x="364" y="-52"/>
      <point x="416" y="1" type="curve"/>
    </contour>
    <component base="a"/>
  </outline>
</glyph>
<glyph name="Hbar" format="1">
  <advance width="709"/>
  <unicode hex="0126"/>
  <outline>
    <contour>
      <point x="66" y="552" type="line"/>
      <point x="61" y="482" type="line"/>
      <point x="66" y="475" type="line"/>
      <point x="712" y="475" type="line"/>
      <point x="717" y="544" type="line"/>
      <point x="711" y="552" type="line"/>
    </contour>
    <component base="H" xOffset="14"/>
  </outline>
</glyph>
<glyph name="lslash" format="1">
  <advance width="386"/>
  <unicode hex="0142"/>
  <outline>
    <contour>
      <point x="2" y="245" type="line"/>
      <point x="4" y="177" type="line"/>
      <point x="14" y="170" type="line"/>
      <point x="320" y="296" type="line"/>
      <point x="318" y="364" type="line"/>
      <point x="310" y="370" type="line"/>
    </contour>
    <component base="l" xOffset="-3"/>
  </outline>
</glyph>
<glyph name="eng" format="1">
  <advance width="594"/>
  <unicode hex="014B"/>
  <outline>
    <contour>
      <point x="441" y="500" type="line"/>
      <point x="407" y="200" type="line"/>
      <point x="399" y="200" type="line"/>
      <point x="240" y="505" type="line"/>
      <point x="108" y="505" type="line"/>
      <point x="69" y="148" type="line"/>
      <point x="45" y="0" type="line"/>
      <point x="156" y="0" type="line"/>
      <point x="174" y="176" type="line"/>
      <point x="191" y="318" type="line"/>
      <point x="199" y="318" type="line"/>
      <point x="369" y="-4" type="line"/>
      <point x="359" y="-31"/>
      <point x="338" y="-51"/>
      <point x="303" y="-72" type="curve"/>
      <point x="302" y="-83" type="line"/>
      <point x="335" y="-134" type="line"/>
      <point x="443" y="-90"/>
      <point x="482" y="-44"/>
      <point x="493" y="40" type="curve"/>
      <point x="504" y="159" type="line"/>
      <point x="555" y="507" type="line"/>
    </contour>
  </outline>
</glyph>
<glyph name="oe" format="1">
  <advance width="733"/>
  <unicode hex="0153"/>
  <outline>
    <contour>
      <point x="140" y="514"/>
      <point x="33" y="397"/>
      <point x="33" y="206" type="curve" smooth="yes"/>
      <point x="33" y="70"/>
      <point x="117" y="-9"/>
      <point x="258" y="-9" type="curve" smooth="yes"/>
      <point x="319" y="-9"/>
      <point x="373" y="1"/>
      <point x="423" y="0" type="curve"/>
      <point x="672" y="0" type="line"/>
      <point x="691" y="91" type="line"/>
      <point x="685" y="100" type="line"/>
      <point x="554" y="96" type="line"/>
      <point x="465" y="96" type="line"/>
      <point x="473" y="160" type="line"/>
      <point x="478" y="207" type="line"/>
      <point x="558" y="208" type="line"/>
      <point x="653" y="205" type="line"/>
      <point x="672" y="297" type="line"/>
      <point x="666" y="306" type="line"/>
      <point x="578" y="303" type="line"/>
      <point x="493" y="304" type="line"/>
      <point x="507" y="409" type="line"/>
      <point x="601" y="409" type="line"/>
      <point x="725" y="404" type="line"/>
      <point x="745" y="495" type="line"/>
      <point x="739" y="505" type="line"/>
      <point x="485" y="505" type="line" smooth="yes"/>
      <point x="439" y="505"/>
      <point x="385" y="514"/>
      <point x="326" y="514" type="curve" smooth="yes"/>
    </contour>
    <contour>
      <point x="344" y="413"/>
      <point x="368" y="407"/>
      <point x="376" y="401" type="curve" smooth="yes"/>
      <point x="382" y="396"/>
      <point x="384" y="388"/>
      <point x="382" y="368" type="curve" smooth="yes"/>
      <point x="357" y="132" type="line" smooth="yes"/>
      <point x="355" y="113"/>
      <point x="351" y="102"/>
      <point x="339" y="96" type="curve" smooth="yes"/>
      <point x="329" y="90"/>
      <point x="302" y="86"/>
      <point x="272" y="86" type="curve" smooth="yes"/>
      <point x="195" y="86"/>
      <point x="161" y="124"/>
      <point x="161" y="210" type="curve" smooth="yes"/>
      <point x="161" y="360"/>
      <point x="209" y="413"/>
      <point x="311" y="413" type="curve" smooth="yes"/>
    </contour>
    <contour>
      <point x="492" y="505" type="move" name="top"/>
    </contour>
  </outline>
</glyph>
<glyph name="Uogonek" format="1">
  <advance width="621"/>
  <unicode hex="0172"/>
  <outline>
    <contour>
      <point x="410" y="69" type="line"/>
      <point x="342" y="-33" type="line" smooth="yes"/>
      <point x="324" y="-60"/>
      <point x="316" y="-85"/>
      <point x="316" y="-110" type="curve" smooth="yes"/>
      <point x="316" y="-160"/>
      <point x="350" y="-197"/>
      <point x="403" y="-197" type="curve" smooth="yes"/>
      <point x="439" y="-197"/>
      <point x="469" y="-180"/>
      <point x="505" y="-147" type="curve"/>
      <point x="493" y="-94" type="line"/>
      <point x="486" y="-94" type="line"/>
      <point x="465" y="-114"/>
      <point x="441" y="-124"/>
      <point x="421" y="-124" type="curve" smooth="yes"/>
      <point x="397" y="-124"/>
      <point x="386" y="-111"/>
      <point x="386" y="-91" type="curve" smooth="yes"/>
      <point x="386" y="-77"/>
      <point x="392" y="-60"/>
      <point x="403" y="-43" type="curve" smooth="yes"/>
      <point x="471" y="69" type="line"/>
    </contour>
    <component base="U"/>
  </outline>
</glyph>
<glyph name="uogonek" format="1">
  <advance width="545"/>
  <unicode hex="0173"/>
  <outline>
    <contour>
      <point x="353" y="62" type="line"/>
      <point x="284" y="-28" type="line" smooth="yes"/>
      <point x="263" y="-56"/>
      <point x="254" y="-84"/>
      <point x="254" y="-110" type="curve" smooth="yes"/>
      <point x="254" y="-159"/>
      <point x="289" y="-197"/>
      <point x="344" y="-197" type="curve" smooth="yes"/>
      <point x="380" y="-197"/>
      <point x="411" y="-181"/>
      <point x="448" y="-147" type="curve"/>
      <point x="436" y="-93" type="line"/>
      <point x="429" y="-93" type="line"/>
      <point x="408" y="-112"/>
      <point x="384" y="-123"/>
      <point x="364" y="-123" type="curve" smooth="yes"/>
      <point x="338" y="-123"/>
      <point x="326" y="-108"/>
      <point x="326" y="-86" type="curve" smooth="yes"/>
      <point x="326" y="-72"/>
      <point x="333" y="-55"/>
      <point x="344" y="-39" type="curve" smooth="yes"/>
      <point x="415" y="62" type="line"/>
    </contour>
    <component base="u"/>
  </outline>
</glyph>
<glyph name="florin" format="1">
  <advance width="315"/>
  <unicode hex="0192"/>
  <outline>
    <contour>
      <point x="205" y="620"/>
      <point x="128" y="559"/>
      <point x="115" y="448" type="curve" smooth="yes"/>
      <point x="107" y="384" type="line"/>
      <point x="36" y="384" type="line"/>
      <point x="30" y="320" type="line"/>
      <point x="34" y="313" type="line"/>
      <point x="100" y="313" type="line"/>
      <point x="84" y="174" type="line"/>
      <point x="70" y="52" type="line" smooth="yes"/>
      <point x="61" y="-14"/>
      <point x="41" y="-49"/>
      <point x="-12" y="-89" type="curve"/>
      <point x="-13" y="-99" type="line"/>
      <point x="40" y="-150" type="line"/>
      <point x="133" y="-93"/>
      <point x="167" y="-40"/>
      <point x="178" y="54" type="curve"/>
      <point x="193" y="185" type="line"/>
      <point x="209" y="313" type="line"/>
      <point x="318" y="313" type="line"/>
      <point x="325" y="376" type="line"/>
      <point x="321" y="384" type="line"/>
      <point x="219" y="384" type="line"/>
      <point x="230" y="467" type="line" smooth="yes"/>
      <point x="236" y="513"/>
      <point x="260" y="537"/>
      <point x="307" y="537" type="curve" smooth="yes"/>
      <point x="324" y="537"/>
      <point x="348" y="533"/>
      <point x="378" y="520" type="curve"/>
      <point x="387" y="525" type="line"/>
      <point x="405" y="611" type="line"/>
      <point x="376" y="617"/>
      <point x="351" y="620"/>
      <point x="325" y="620" type="curve" smooth="yes"/>
    </contour>
  </outline>
</glyph>
<glyph name="Ohorn" format="1">
  <advance width="635"/>
  <unicode hex="01A0"/>
  <outline>
    <contour>
      <point x="626" y="775"/>
      <point x="601" y="763"/>
      <point x="581" y="750" type="curve"/>
      <point x="578" y="740" type="line"/>
      <point x="593" y="724"/>
      <point x="600" y="702"/>
      <point x="600" y="681" type="curve" smooth="yes"/>
      <point x="600" y="643"/>
      <point x="572" y="623"/>
      <point x="536" y="623" type="curve" smooth="yes"/>
      <point x="492" y="623"/>
      <point x="453" y="652"/>
      <point x="364" y="652" type="curve" smooth="yes"/>
      <point x="168" y="652"/>
      <point x="37" y="500"/>
      <point x="37" y="272" type="curve" smooth="yes"/>
      <point x="37" y="83"/>
      <point x="127" y="-10"/>
      <point x="286" y="-10" type="curve" smooth="yes"/>
      <point x="495" y="-10"/>
      <point x="618" y="152"/>
      <point x="618" y="380" type="curve" smooth="yes"/>
      <point x="618" y="457"/>
      <point x="604" y="514"/>
      <point x="572" y="561" type="curve"/>
      <point x="645" y="571"/>
      <point x="702" y="621"/>
      <point x="702" y="695" type="curve" smooth="yes"/>
      <point x="702" y="743"/>
      <point x="678" y="775"/>
      <point x="646" y="775" type="curve" smooth="yes"/>
    </contour>
    <contour>
      <point x="448" y="545"/>
      <point x="480" y="490"/>
      <point x="480" y="366" type="curve" smooth="yes"/>
      <point x="480" y="177"/>
      <point x="416" y="92"/>
      <point x="301" y="92" type="curve" smooth="yes"/>
      <point x="205" y="92"/>
      <point x="174" y="148"/>
      <point x="174" y="274" type="curve" smooth="yes"/>
      <point x="174" y="461"/>
      <point x="237" y="545"/>
      <point x="353" y="545" type="curve" smooth="yes"/>
    </contour>
    <contour>
      <point x="366" y="643" type="move" name="top"/>
    </contour>
  </outline>
</glyph>
<glyph name="ohorn" format="1">
  <advance width="557"/>
  <unicode hex="01A1"/>
  <outline>
    <contour>
      <point x="482" y="578" type="line"/>
      <point x="494" y="566"/>
      <point x="501" y="549"/>
      <point x="501" y="533" type="curve" smooth="yes"/>
      <point x="501" y="505"/>
      <point x="481" y="490"/>
      <point x="452" y="490" type="curve" smooth="yes"/>
      <point x="417" y="490"/>
      <point x="376" y="512"/>
      <point x="305" y="512" type="curve" smooth="yes"/>
      <point x="138" y="512"/>
      <point x="32" y="397"/>
      <point x="32" y="203" type="curve" smooth="yes"/>
      <point x="32" y="70"/>
      <point x="111" y="-9"/>
      <point x="245" y="-9" type="curve" smooth="yes"/>
      <point x="421" y="-9"/>
      <point x="524" y="113"/>
      <point x="524" y="300" type="curve" smooth="yes"/>
      <point x="524" y="351"/>
      <point x="512" y="397"/>
      <point x="490" y="430" type="curve"/>
      <point x="550" y="436"/>
      <point x="596" y="485"/>
      <point x="596" y="543" type="curve" smooth="yes"/>
      <point x="596" y="583"/>
      <point x="572" y="611"/>
      <point x="544" y="611" type="curve" smooth="yes"/>
      <point x="525" y="611"/>
      <point x="502" y="599"/>
      <point x="485" y="588" type="curve"/>
    </contour>
    <contour>
      <point x="192" y="86"/>
      <point x="160" y="119"/>
      <point x="160" y="205" type="curve" smooth="yes"/>
      <point x="160" y="359"/>
      <point x="202" y="414"/>
      <point x="296" y="414" type="curve" smooth="yes"/>
      <point x="364" y="414"/>
      <point x="396" y="380"/>
      <point x="396" y="294" type="curve" smooth="yes"/>
      <point x="396" y="137"/>
      <point x="353" y="86"/>
      <point x="261" y="86" type="curve" smooth="yes"/>
    </contour>
    <contour>
      <point x="287" y="505" type="move" name="top"/>
    </contour>
  </outline>
</glyph>
<glyph name="Uhorn" format="1">
  <advance width="631"/>
  <unicode hex="01AF"/>
  <outline>
    <contour>
      <point x="603" y="788"/>
      <point x="581" y="777"/>
      <point x="561" y="763" type="curve"/>
      <point x="558" y="753" type="line"/>
      <point x="578" y="734"/>
      <point x="588" y="715"/>
      <point x="588" y="693" type="curve" smooth="yes"/>
      <point x="588" y="660"/>
      <point x="569" y="643"/>
      <point x="528" y="643" type="curve"/>
      <point x="546" y="579" type="line"/>
      <point x="631" y="588"/>
      <point x="688" y="640"/>
      <point x="688" y="704" type="curve" smooth="yes"/>
      <point x="688" y="753"/>
      <point x="657" y="788"/>
      <point x="623" y="788" type="curve" smooth="yes"/>
    </contour>
    <component base="U"/>
    <contour>
      <point x="348" y="643" type="move" name="top"/>
    </contour>
  </outline>
</glyph>
<glyph name="oogonek" format="1">
  <advance width="552"/>
  <unicode hex="01EB"/>
  <outline>
    <contour>
      <point x="321" y="62" type="line"/>
      <point x="257" y="-28" type="line" smooth="yes"/>
      <point x="237" y="-56"/>
      <point x="228" y="-84"/>
      <point x="228" y="-110" type="curve" smooth="yes"/>
      <point x="228" y="-159"/>
      <point x="263" y="-197"/>
      <point x="318" y="-197" type="curve" smooth="yes"/>
      <point x="354" y="-197"/>
      <point x="385" y="-181"/>
      <point x="422" y="-147" type="curve"/>
      <point x="410" y="-93" type="line"/>
      <point x="403" y="-93" type="line"/>
      <point x="382" y="-112"/>
      <point x="358" y="-123"/>
      <point x="338" y="-123" type="curve" smooth="yes"/>
      <point x="312" y="-123"/>
      <point x="300" y="-108"/>
      <point x="300" y="-86" type="curve" smooth="yes"/>
      <point x="300" y="-72"/>
      <point x="306" y="-56"/>
      <point x="317" y="-39" type="curve" smooth="yes"/>
      <point x="383" y="62" type="line"/>
    </contour>
    <component base="o"/>
  </outline>
</glyph>
<glyph name="Aringacute" format="1">
  <advance width="597"/>
  <unicode hex="01FA"/>
  <outline>
    <contour>
      <point x="297" y="642" type="line"/>
      <point x="-6" y="0" type="line"/>
      <point x="124" y="0" type="line"/>
      <point x="151" y="88" type="line"/>
      <point x="339" y="508" type="line"/>
      <point x="348" y="508" type="line"/>
      <point x="414" y="80" type="line"/>
      <point x="420" y="0" type="line"/>
      <point x="553" y="0" type="line"/>
      <point x="430" y="642" type="line"/>
    </contour>
    <contour>
      <point x="304" y="242" type="line"/>
      <point x="165" y="244" type="line"/>
      <point x="153" y="142" type="line"/>
      <point x="283" y="146" type="line"/>
      <point x="423" y="143" type="line"/>
      <point x="436" y="244" type="line"/>
    </contour>
    <contour>
      <point x="300" y="292" type="move"/>
    </contour>
    <component base="ringacute" xOffset="126" yOffset="75"/>
  </outline>
</glyph>
<glyph name="caron" format="1">
  <advance width="390"/>
  <unicode hex="02C7"/>
  <outline>
    <contour>
      <point x="362" y="714" type="line"/>
      <point x="317" y="681"/>
      <point x="275" y="650"/>
      <point x="242" y="621" type="curve"/>
      <point x="216" y="650"/>
      <point x="183" y="681"/>
      <point x="146" y="714" type="curve"/>
      <point x="134" y="714" type="line"/>
      <point x="95" y="665" type="line"/>
      <point x="138" y="620"/>
      <point x="183" y="571"/>
      <point x="220" y="524" type="curve"/>
      <point x="248" y="524" type="line"/>
      <point x="303" y="576"/>
      <point x="354" y="625"/>
      <point x="401" y="665" type="curve"/>
      <point x="375" y="714" type="line"/>
    </contour>
    <contour>
      <point x="229" y="464" type="move" name="_top"/>
    </contour>
  </outline>
</glyph>
<glyph name="breve" format="1">
  <advance width="390"/>
  <unicode hex="02D8"/>
  <outline>
    <contour>
      <point x="351" y="698" type="line"/>
      <point x="329" y="647"/>
      <point x="291" y="621"/>
      <point x="242" y="621" type="curve" smooth="yes"/>
      <point x="194" y="621"/>
      <point x="160" y="647"/>
      <point x="150" y="698" type="curve"/>
      <point x="131" y="698" type="line"/>
      <point x="97" y="654" type="line"/>
      <point x="106" y="587"/>
      <point x="144" y="530"/>
      <point x="236" y="530" type="curve" smooth="yes"/>
      <point x="316" y="530"/>
      <point x="369" y="585"/>
      <point x="394" y="654" type="curve" smooth="yes"/>
      <point x="369" y="698" type="line"/>
    </contour>
    <contour>
      <point x="228" y="464" type="move" name="_top"/>
    </contour>
  </outline>
</glyph>
<glyph name="dotaccent" format="1">
  <advance width="390"/>
  <unicode hex="02D9"/>
  <outline>
    <contour>
      <point x="201" y="693"/>
      <point x="174" y="665"/>
      <point x="174" y="621" type="curve" smooth="yes"/>
      <point x="174" y="579"/>
      <point x="197" y="554"/>
      <point x="240" y="554" type="curve" smooth="yes"/>
      <point x="283" y="554"/>
      <point x="310" y="582"/>
      <point x="310" y="626" type="curve" smooth="yes"/>
      <point x="310" y="668"/>
      <point x="286" y="693"/>
      <point x="245" y="693" type="curve" smooth="yes"/>
    </contour>
    <contour>
      <point x="223" y="464" type="move" name="_top"/>
    </contour>
  </outline>
</glyph>
<glyph name="ring" format="1">
  <advance width="390"/>
  <unicode hex="02DA"/>
  <outline>
    <contour>
      <point x="184" y="723"/>
      <point x="149" y="688"/>
      <point x="149" y="628" type="curve" smooth="yes"/>
      <point x="149" y="567"/>
      <point x="184" y="534"/>
      <point x="241" y="534" type="curve" smooth="yes"/>
      <point x="301" y="534"/>
      <point x="339" y="569"/>
      <point x="339" y="632" type="curve" smooth="yes"/>
      <point x="339" y="688"/>
      <point x="308" y="723"/>
      <point x="246" y="723" type="curve" smooth="yes"/>
    </contour>
    <contour>
      <point x="272" y="667"/>
      <point x="285" y="652"/>
      <point x="285" y="627" type="curve" smooth="yes"/>
      <point x="285" y="601"/>
      <point x="270" y="589"/>
      <point x="244" y="589" type="curve" smooth="yes"/>
      <point x="218" y="589"/>
      <point x="203" y="602"/>
      <point x="203" y="630" type="curve" smooth="yes"/>
      <point x="203" y="654"/>
      <point x="216" y="667"/>
      <point x="243" y="667" type="curve" smooth="yes"/>
    </contour>
    <contour>
      <point x="224" y="464" type="move" name="_top"/>
    </contour>
  </outline>
</glyph>
<glyph name="tildecomb" format="1">
  <advance width="390"/>
  <unicode hex="0303"/>
  <outline>
    <contour>
      <point x="366" y="699" type="line"/>
      <point x="341" y="672"/>
      <point x="323" y="648"/>
      <point x="303" y="648" type="curve" smooth="yes"/>
      <point x="278" y="648"/>
      <point x="196" y="678"/>
      <point x="150" y="684" type="curve"/>
      <point x="137" y="679" type="line"/>
      <point x="67" y="591" type="line"/>
      <point x="67" y="580" type="line"/>
      <point x="106" y="541" type="line"/>
      <point x="117" y="541" type="line"/>
      <point x="142" y="568"/>
      <point x="159" y="593"/>
      <point x="179" y="593" type="curve" smooth="yes"/>
      <point x="205" y="593"/>
      <point x="287" y="563"/>
      <point x="333" y="557" type="curve"/>
      <point x="345" y="561" type="line"/>
      <point x="415" y="650" type="line"/>
      <point x="415" y="661" type="line"/>
      <point x="377" y="699" type="line"/>
    </contour>
    <contour>
      <point x="223" y="464" type="move" name="_top"/>
    </contour>
  </outline>
</glyph>
<glyph name="Delta" format="1">
  <advance width="583"/>
  <unicode hex="0394"/>
  <outline>
    <contour>
      <point x="271" y="643" type="line"/>
      <point x="-19" y="0" type="line"/>
      <point x="540" y="0" type="line"/>
      <point x="428" y="643" type="line"/>
    </contour>
    <contour>
      <point x="397" y="101" type="line"/>
      <point x="144" y="101" type="line"/>
      <point x="326" y="519" type="line"/>
      <point x="335" y="519" type="line"/>
    </contour>
  </outline>
</glyph>
<glyph name="mu" format="1">
  <advance width="499"/>
  <unicode hex="03BC"/>
  <outline>
    <contour>
      <point x="274" y="197"/>
      <point x="214" y="122"/>
      <point x="182" y="122" type="curve" smooth="yes"/>
      <point x="170" y="122"/>
      <point x="160" y="129"/>
      <point x="164" y="152" type="curve"/>
      <point x="57" y="85" type="line"/>
      <point x="56" y="38"/>
      <point x="94" y="5"/>
      <point x="149" y="-4" type="curve"/>
      <point x="161" y="-4" type="line"/>
      <point x="212" y="39"/>
      <point x="255" y="93"/>
      <point x="307" y="177" type="curve"/>
      <point x="331" y="177" type="line"/>
      <point x="353" y="358" type="line"/>
    </contour>
    <contour>
      <point x="88" y="460" type="line"/>
      <point x="84" y="356" type="line"/>
      <point x="8" y="-194" type="line"/>
      <point x="128" y="-185" type="line"/>
      <point x="132" y="-76" type="line"/>
      <point x="163" y="152" type="line"/>
      <point x="207" y="468" type="line"/>
    </contour>
    <contour>
      <point x="346" y="460" type="line"/>
      <point x="342" y="356" type="line"/>
      <point x="292" y="-4" type="line"/>
      <point x="412" y="5" type="line"/>
      <point x="416" y="112" type="line"/>
      <point x="465" y="468" type="line"/>
    </contour>
  </outline>
</glyph>
<glyph name="daggerdbl" format="1">
  <advance width="500"/>
  <unicode hex="2021"/>
  <outline>
    <contour>
      <point x="247" y="585" type="line"/>
      <point x="210" y="281" type="line"/>
      <point x="165" y="-85" type="line"/>
      <point x="172" y="-94" type="line"/>
      <point x="253" y="-89" type="line"/>
      <point x="299" y="289" type="line"/>
      <point x="337" y="584" type="line"/>
      <point x="331" y="591" type="line"/>
    </contour>
    <contour>
      <point x="37" y="156" type="line"/>
      <point x="21" y="79" type="line"/>
      <point x="29" y="69" type="line"/>
      <point x="435" y="69" type="line"/>
      <point x="451" y="148" type="line"/>
      <point x="443" y="156" type="line"/>
    </contour>
    <contour>
      <point x="69" y="422" type="line"/>
      <point x="53" y="344" type="line"/>
      <point x="61" y="335" type="line"/>
      <point x="467" y="335" type="line"/>
      <point x="483" y="413" type="line"/>
      <point x="475" y="422" type="line"/>
    </contour>
  </outline>
</glyph>
<glyph name="guilsinglright" format="1">
  <advance width="246"/>
  <unicode hex="203A"/>
  <outline>
    <contour>
      <point x="47" y="383" type="line"/>
      <point x="42" y="371" type="line"/>
      <point x="130" y="230" type="line"/>
      <point x="8" y="89" type="line"/>
      <point x="9" y="76" type="line"/>
      <point x="66" y="43" type="line"/>
      <point x="224" y="216" type="line"/>
      <point x="226" y="237" type="line"/>
      <point x="111" y="416" type="line"/>
    </contour>
  </outline>
</glyph>
<glyph name="franc" format="1">
  <advance width="417"/>
  <unicode hex="20A3"/>
  <outline>
    <contour>
      <point x="110" y="503" type="line"/>
      <point x="71" y="150" type="line"/>
      <point x="48" y="0" type="line"/>
      <point x="157" y="0" type="line"/>
      <point x="172" y="160" type="line"/>
      <point x="220" y="503" type="line"/>
    </contour>
    <contour>
      <point x="8" y="139" type="line"/>
      <point x="-1" y="92" type="line"/>
      <point x="3" y="87" type="line"/>
      <point x="278" y="87" type="line"/>
      <point x="287" y="133" type="line"/>
      <point x="283" y="139" type="line"/>
    </contour>
    <contour>
      <point x="270" y="291" type="line"/>
      <point x="163" y="291" type="line"/>
      <point x="151" y="213" type="line"/>
      <point x="152" y="207" type="line"/>
      <point x="253" y="207" type="line"/>
      <point x="356" y="206" type="line"/>
      <point x="372" y="284" type="line"/>
      <point x="367" y="293" type="line"/>
    </contour>
    <contour>
      <point x="183" y="503" type="line"/>
      <point x="172" y="426" type="line"/>
      <point x="173" y="420" type="line"/>
      <point x="294" y="420" type="line"/>
      <point x="426" y="416" type="line"/>
      <point x="443" y="494" type="line"/>
      <point x="438" y="503" type="line"/>
    </contour>
  </outline>
</glyph>
<glyph name="arrowdown" format="1">
  <advance width="531"/>
  <unicode hex="2193"/>
  <outline>
    <contour>
      <point x="444" y="260" type="line"/>
      <point x="266" y="90" type="line"/>
      <point x="87" y="260" type="line"/>
      <point x="70" y="260" type="line"/>
      <point x="53" y="190" type="line"/>
      <point x="256" y="-7" type="line"/>
      <point x="276" y="-7" type="line"/>
      <point x="478" y="190" type="line"/>
      <point x="462" y="260" type="line"/>
    </contour>
    <contour>
      <point x="220" y="464" type="line"/>
      <point x="227" y="66" type="line"/>
      <point x="304" y="66" type="line"/>
      <point x="310" y="468" type="line"/>
      <point x="229" y="473" type="line"/>
    </contour>
  </outline>
</glyph>
<glyph name="infinity" format="1">
  <advance width="482"/>
  <unicode hex="221E"/>
  <outline>
    <contour>
      <point x="316" y="412"/>
      <point x="273" y="373"/>
      <point x="248" y="338" type="curve"/>
      <point x="225" y="382"/>
      <point x="195" y="412"/>
      <point x="141" y="412" type="curve" smooth="yes"/>
      <point x="54" y="412"/>
      <point x="-7" y="346"/>
      <point x="-7" y="239" type="curve" smooth="yes"/>
      <point x="-7" y="162"/>
      <point x="34" y="112"/>
      <point x="107" y="112" type="curve" smooth="yes"/>
      <point x="167" y="112"/>
      <point x="209" y="144"/>
      <point x="240" y="189" type="curve"/>
      <point x="265" y="139"/>
      <point x="295" y="112"/>
      <point x="346" y="112" type="curve" smooth="yes"/>
      <point x="429" y="112"/>
      <point x="494" y="173"/>
      <point x="494" y="283" type="curve" smooth="yes"/>
      <point x="494" y="360"/>
      <point x="454" y="412"/>
      <point x="381" y="412" type="curve" smooth="yes"/>
    </contour>
    <contour>
      <point x="176" y="332"/>
      <point x="194" y="307"/>
      <point x="208" y="274" type="curve"/>
      <point x="185" y="231"/>
      <point x="159" y="196"/>
      <point x="117" y="196" type="curve" smooth="yes"/>
      <point x="85" y="196"/>
      <point x="66" y="217"/>
      <point x="66" y="253" type="curve" smooth="yes"/>
      <point x="66" y="300"/>
      <point x="93" y="332"/>
      <point x="138" y="332" type="curve" smooth="yes"/>
    </contour>
    <contour>
      <point x="402" y="328"/>
      <point x="419" y="306"/>
      <point x="419" y="271" type="curve" smooth="yes"/>
      <point x="419" y="221"/>
      <point x="391" y="191"/>
      <point x="350" y="191" type="curve" smooth="yes"/>
      <point x="312" y="191"/>
      <point x="294" y="217"/>
      <point x="279" y="251" type="curve"/>
      <point x="300" y="290"/>
      <point x="324" y="328"/>
      <point x="368" y="328" type="curve" smooth="yes"/>
    </contour>
  </outline>
</glyph>
<glyph name="integral" format="1">
  <advance width="293"/>
  <unicode hex="222B"/>
  <outline>
    <contour>
      <point x="212" y="712"/>
      <point x="134" y="650"/>
      <point x="121" y="537" type="curve"/>
      <point x="65" y="50" type="line" smooth="yes"/>
      <point x="58" y="-15"/>
      <point x="34" y="-49"/>
      <point x="-19" y="-87" type="curve"/>
      <point x="-20" y="-98" type="line"/>
      <point x="29" y="-152" type="line"/>
      <point x="131" y="-96"/>
      <point x="170" y="-41"/>
      <point x="181" y="54" type="curve" smooth="yes"/>
      <point x="241" y="557" type="line"/>
      <point x="247" y="601"/>
      <point x="269" y="623"/>
      <point x="311" y="623" type="curve" smooth="yes"/>
      <point x="328" y="623"/>
      <point x="353" y="619"/>
      <point x="384" y="606" type="curve"/>
      <point x="394" y="612" type="line"/>
      <point x="412" y="703" type="line"/>
      <point x="387" y="709"/>
      <point x="360" y="712"/>
      <point x="334" y="712" type="curve" smooth="yes"/>
    </contour>
  </outline>
</glyph>
<glyph name="notequal" format="1">
  <advance width="478"/>
  <unicode hex="2260"/>
  <outline>
    <contour>
      <point x="292" y="537" type="line"/>
      <point x="96" y="-10" type="line"/>
      <point x="101" y="-20" type="line"/>
      <point x="183" y="-20" type="line"/>
      <point x="379" y="528" type="line"/>
      <point x="372" y="537" type="line"/>
    </contour>
    <component base="equal" xOffset="-2"/>
  </outline>
</glyph>
<glyph name="I.ss01" format="1">
  <advance width="271"/>
  <outline>
    <contour>
      <point x="104" y="503" type="line"/>
      <point x="66" y="150" type="line"/>
      <point x="42" y="1" type="line"/>
      <point x="164" y="1" type="line"/>
      <point x="179" y="161" type="line"/>
      <point x="228" y="503" type="line"/>
    </contour>
    <contour>
      <point x="-119" y="48" type="line"/>
      <point x="-125" y="0" type="line"/>
      <point x="340" y="0" type="line"/>
      <point x="346" y="48" type="line"/>
    </contour>
    <contour>
      <point x="-62" y="505" type="line"/>
      <point x="-68" y="457" type="line"/>
      <point x="397" y="457" type="line"/>
      <point x="403" y="505" type="line"/>
    </contour>
    <contour>
      <point x="180" y="9" type="move" name="ogonek"/>
    </contour>
    <contour>
      <point x="171" y="503" type="move" name="top"/>
    </contour>
  </outline>
</glyph>
<glyph name="M.ss01" format="1">
  <advance width="666"/>
  <outline>
    <contour>
      <point x="461" y="488" type="line"/>
      <point x="432" y="425" type="line"/>
      <point x="337" y="237" type="line"/>
      <point x="329" y="237" type="line"/>
      <point x="284" y="426" type="line"/>
      <point x="273" y="488" type="line"/>
      <point x="139" y="488" type="line"/>
      <point x="30" y="11" type="line"/>
      <point x="129" y="11" type="line"/>
      <point x="159" y="179" type="line"/>
      <point x="192" y="330" type="line"/>
      <point x="199" y="330" type="line"/>
      <point x="263" y="88" type="line"/>
      <point x="352" y="88" type="line"/>
      <point x="485" y="330" type="line"/>
      <point x="492" y="330" type="line"/>
      <point x="487" y="170" type="line"/>
      <point x="473" y="11" type="line"/>
      <point x="576" y="11" type="line"/>
      <point x="592" y="488" type="line"/>
    </contour>
    <contour>
      <point x="-119" y="48" type="line"/>
      <point x="-125" y="0" type="line"/>
      <point x="736" y="0" type="line"/>
      <point x="741" y="48" type="line"/>
    </contour>
    <contour>
      <point x="-62" y="505" type="line"/>
      <point x="-68" y="457" type="line"/>
      <point x="793" y="457" type="line"/>
      <point x="799" y="505" type="line"/>
    </contour>
  </outline>
</glyph>
<glyph name="acute.cap" format="1">
  <advance width="390"/>
  <outline>
    <contour>
      <point x="252" y="667"/>
      <point x="187" y="632"/>
      <point x="115" y="596" type="curve"/>
      <point x="136" y="542" type="line"/>
      <point x="149" y="538" type="line"/>
      <point x="219" y="562"/>
      <point x="287" y="586"/>
      <point x="362" y="616" type="curve"/>
      <point x="367" y="628" type="line"/>
      <point x="334" y="705" type="line"/>
      <point x="322" y="708" type="line"/>
    </contour>
    <contour>
      <point x="214" y="464" type="move" name="_top"/>
    </contour>
  </outline>
</glyph>
<glyph name="c.sups" format="1">
  <advance width="249"/>
  <outline>
    <contour>
      <point x="230" y="648" type="line"/>
      <point x="106" y="648"/>
      <point x="53" y="554"/>
      <point x="53" y="445" type="curve" smooth="yes"/>
      <point x="53" y="367"/>
      <point x="81" y="333"/>
      <point x="149" y="324" type="curve"/>
      <point x="161" y="324" type="line"/>
      <point x="207" y="336"/>
      <point x="237" y="359"/>
      <point x="266" y="409" type="curve"/>
      <point x="238" y="444" type="line"/>
      <point x="227" y="444" type="line"/>
      <point x="205" y="405"/>
      <point x="187" y="393"/>
      <point x="169" y="393" type="curve" smooth="yes"/>
      <point x="145" y="393"/>
      <point x="134" y="412"/>
      <point x="134" y="459" type="curve" smooth="yes"/>
      <point x="134" y="540"/>
      <point x="158" y="584"/>
      <point x="205" y="584" type="curve"/>
      <point x="219" y="584"/>
      <point x="230" y="577"/>
      <point x="245" y="561" type="curve"/>
      <point x="264" y="562" type="line"/>
      <point x="287" y="623" type="line"/>
      <point x="284" y="631" type="line"/>
      <point x="230" y="648" type="line"/>
    </contour>
    <contour>
      <point x="223" y="0" type="move" name="bottom"/>
    </contour>
    <contour>
      <point x="230" y="466" type="move" name="top"/>
    </contour>
  </outline>
</glyph>
<glyph name="circle1" format="1">
  <advance width="460"/>
  <outline>
    <contour>
      <point x="100" y="464"/>
      <point x="-7" y="357"/>
      <point x="-7" y="226" type="curve" smooth="yes"/>
      <point x="-7" y="95"/>
      <point x="100" y="-12"/>
      <point x="231" y="-12" type="curve" smooth="yes"/>
      <point x="362" y="-12"/>
      <point x="469" y="95"/>
      <point x="469" y="226" type="curve" smooth="yes"/>
      <point x="469" y="357"/>
      <point x="362" y="464"/>
      <point x="231" y="464" type="curve" smooth="yes"/>
    </contour>
  </outline>
</glyph>
<glyph name="d.sups" format="1">
  <advance width="322"/>
  <outline>
    <contour>
      <point x="217" y="645" type="line"/>
      <point x="212" y="645" type="line"/>
      <point x="102" y="620"/>
      <point x="49" y="522"/>
      <point x="49" y="428" type="curve" smooth="yes"/>
      <point x="49" y="374"/>
      <point x="65" y="341"/>
      <point x="123" y="323" type="curve"/>
      <point x="136" y="323" type="line"/>
      <point x="166" y="354"/>
      <point x="194" y="396"/>
      <point x="219" y="441" type="curve"/>
      <point x="228" y="441" type="line"/>
      <point x="251" y="565" type="line"/>
      <point x="202" y="456"/>
      <point x="160" y="399"/>
      <point x="146" y="399" type="curve" smooth="yes"/>
      <point x="138" y="399"/>
      <point x="127" y="416"/>
      <point x="127" y="460" type="curve" smooth="yes"/>
      <point x="127" y="532"/>
      <point x="153" y="585"/>
      <point x="200" y="585" type="curve"/>
      <point x="271" y="571" type="line"/>
      <point x="315" y="631" type="line"/>
      <point x="217" y="645" type="line"/>
    </contour>
    <contour>
      <point x="354" y="812" type="line"/>
      <point x="267" y="805" type="line"/>
      <point x="264" y="734" type="line"/>
      <point x="210" y="325" type="line"/>
      <point x="296" y="331" type="line"/>
      <point x="300" y="404" type="line"/>
      <point x="354" y="812" type="line"/>
    </contour>
    <contour>
      <point x="379" y="0" type="move" name="bottom"/>
    </contour>
    <contour>
      <point x="446" y="233" type="move" name="center"/>
    </contour>
    <contour>
      <point x="380" y="466" type="move" name="top"/>
    </contour>
    <contour>
      <point x="493" y="466" type="move" name="topright"/>
    </contour>
  </outline>
</glyph>
<glyph name="five.lf" format="1">
  <advance width="437"/>
  <outline>
    <contour>
      <point x="327" y="586" type="line"/>
      <point x="182" y="586" type="line"/>
      <point x="124" y="589" type="line"/>
      <point x="107" y="574" type="line"/>
      <point x="72" y="292" type="line"/>
      <point x="80" y="281" type="line"/>
      <point x="181" y="263" type="line" smooth="yes"/>
      <point x="238" y="253"/>
      <point x="265" y="229"/>
      <point x="265" y="189" type="curve" smooth="yes"/>
      <point x="265" y="130"/>
      <point x="214" y="88"/>
      <point x="134" y="88" type="curve" smooth="yes"/>
      <point x="96" y="88"/>
      <point x="59" y="95"/>
      <point x="18" y="111" type="curve"/>
      <point x="8" y="102" type="line"/>
      <point x="4" y="-0" type="line"/>
      <point x="38" y="-7"/>
      <point x="81" y="-11"/>
      <point x="115" y="-11" type="curve" smooth="yes"/>
      <point x="272" y="-11"/>
      <point x="390" y="83"/>
      <point x="390" y="209" type="curve" smooth="yes"/>
      <point x="390" y="288"/>
      <point x="341" y="337"/>
      <point x="242" y="357" type="curve" smooth="yes"/>
      <point x="181" y="370" type="line"/>
      <point x="196" y="483" type="line"/>
      <point x="313" y="483" type="line"/>
      <point x="402" y="474" type="line"/>
      <point x="413" y="483" type="line"/>
      <point x="437" y="583" type="line"/>
      <point x="431" y="592" type="line"/>
    </contour>
  </outline>
</glyph>
<glyph name="five.tosf" format="1">
  <advance width="474"/>
  <outline>
    <contour>
      <point x="342" y="505" type="line"/>
      <point x="191" y="505" type="line"/>
      <point x="132" y="508" type="line"/>
      <point x="114" y="493" type="line"/>
      <point x="79" y="209" type="line"/>
      <point x="87" y="199" type="line"/>
      <point x="191" y="181" type="line" smooth="yes"/>
      <point x="252" y="170"/>
      <point x="282" y="146"/>
      <point x="282" y="105" type="curve" smooth="yes"/>
      <point x="282" y="45"/>
      <point x="227" y="3"/>
      <point x="142" y="3" type="curve" smooth="yes"/>
      <point x="103" y="3"/>
      <point x="65" y="10"/>
      <point x="23" y="26" type="curve"/>
      <point x="13" y="17" type="line"/>
      <point x="9" y="-85" type="line"/>
      <point x="44" y="-92"/>
      <point x="88" y="-97"/>
      <point x="123" y="-97" type="curve" smooth="yes"/>
      <point x="286" y="-97"/>
      <point x="406" y="-1"/>
      <point x="406" y="125" type="curve" smooth="yes"/>
      <point x="406" y="205"/>
      <point x="355" y="254"/>
      <point x="252" y="275" type="curve" smooth="yes"/>
      <point x="188" y="288" type="line"/>
      <point x="203" y="402" type="line"/>
      <point x="329" y="402" type="line"/>
      <point x="419" y="393" type="line"/>
      <point x="430" y="402" type="line"/>
      <point x="454" y="502" type="line"/>
      <point x="448" y="511" type="line"/>
    </contour>
  </outline>
</glyph>
<glyph name="four.tosf" format="1">
  <advance width="475"/>
  <outline>
    <contour>
      <point x="287" y="505" type="line"/>
      <point x="4" y="149" type="line"/>
      <point x="-5" y="68" type="line"/>
      <point x="2" y="58" type="line"/>
      <point x="84" y="60" type="line"/>
      <point x="321" y="60" type="line"/>
      <point x="427" y="58" type="line"/>
      <point x="444" y="144" type="line"/>
      <point x="438" y="156" type="line"/>
      <point x="113" y="156" type="line"/>
      <point x="276" y="363" type="line"/>
      <point x="285" y="363" type="line"/>
      <point x="256" y="130" type="line"/>
      <point x="223" y="-88" type="line"/>
      <point x="229" y="-96" type="line"/>
      <point x="325" y="-90" type="line"/>
      <point x="334" y="-81" type="line"/>
      <point x="350" y="108" type="line"/>
      <point x="402" y="505" type="line"/>
    </contour>
  </outline>
</glyph>
<glyph name="i.sups" format="1">
  <advance width="164"/>
  <outline>
    <contour>
      <point x="172" y="645" type="line"/>
      <point x="88" y="640" type="line"/>
      <point x="84" y="569" type="line"/>
      <point x="52" y="325" type="line"/>
      <point x="137" y="331" type="line"/>
      <point x="142" y="404" type="line"/>
      <point x="172" y="645" type="line"/>
    </contour>
    <contour>
      <point x="119" y="804"/>
      <point x="98" y="781"/>
      <point x="98" y="747" type="curve" smooth="yes"/>
      <point x="98" y="723"/>
      <point x="115" y="709"/>
      <point x="141" y="709" type="curve" smooth="yes"/>
      <point x="174" y="709"/>
      <point x="194" y="731"/>
      <point x="194" y="765" type="curve" smooth="yes"/>
      <point x="194" y="789"/>
      <point x="178" y="804"/>
      <point x="152" y="804" type="curve" smooth="yes"/>
    </contour>
    <contour>
      <point x="78" y="191" type="move" name="_top"/>
    </contour>
    <contour>
      <point x="112" y="4" type="move" name="ogonek"/>
    </contour>
    <contour>
      <point x="78" y="191" type="move" name="top"/>
    </contour>
  </outline>
</glyph>
<glyph name="iacute_j.loclNLD" format="1">
  <advance width="587"/>
  <outline>
    <contour>
      <point x="262" y="209" type="move"/>
    </contour>
    <component base="iacute"/>
    <component base="j" xOffset="275"/>
    <component base="acute" xOffset="219" yOffset="40"/>
  </outline>
</glyph>
<glyph name="macron.i" format="1">
  <advance width="390"/>
  <outline>
    <contour>
      <point x="129" y="659" type="line"/>
      <point x="122" y="586" type="line"/>
      <point x="130" y="577" type="line"/>
      <point x="356" y="577" type="line"/>
      <point x="362" y="650" type="line"/>
      <point x="353" y="659" type="line"/>
    </contour>
    <contour>
      <point x="223" y="464" type="move" name="_top"/>
    </contour>
  </outline>
</glyph>
<glyph name="n.sups" format="1">
  <advance width="346"/>
  <outline>
    <contour>
      <point x="172" y="392" type="line"/>
      <point x="172" y="392" type="line"/>
    </contour>
    <contour>
      <point x="91" y="640" type="line"/>
      <point x="87" y="569" type="line"/>
      <point x="56" y="325" type="line"/>
      <point x="141" y="331" type="line"/>
      <point x="145" y="404" type="line"/>
      <point x="176" y="645" type="line"/>
      <point x="91" y="640" type="line"/>
    </contour>
    <contour>
      <point x="265" y="646" type="line"/>
      <point x="231" y="617"/>
      <point x="202" y="576"/>
      <point x="168" y="523" type="curve"/>
      <point x="156" y="523" type="line"/>
      <point x="138" y="420" type="line"/>
      <point x="187" y="514"/>
      <point x="226" y="560"/>
      <point x="244" y="560" type="curve" smooth="yes"/>
      <point x="251" y="560"/>
      <point x="259" y="552"/>
      <point x="259" y="536" type="curve"/>
      <point x="258" y="528" type="line"/>
      <point x="224" y="325" type="line"/>
      <point x="312" y="331" type="line"/>
      <point x="316" y="404" type="line"/>
      <point x="343" y="568" type="line"/>
      <point x="344" y="577" type="line"/>
      <point x="345" y="611"/>
      <point x="312" y="638"/>
      <point x="274" y="646" type="curve"/>
    </contour>
    <contour>
      <point x="125" y="0" type="move" name="bottom"/>
    </contour>
    <contour>
      <point x="112" y="4" type="move" name="ogonek"/>
    </contour>
    <contour>
      <point x="141" y="191" type="move" name="top"/>
    </contour>
  </outline>
</glyph>
<glyph name="nine.dnom" format="1">
  <advance width="350"/>
  <outline>
    <contour>
      <point x="89" y="391"/>
      <point x="37" y="329"/>
      <point x="31" y="260" type="curve"/>
      <point x="26" y="198"/>
      <point x="63" y="145"/>
      <point x="139" y="145" type="curve" smooth="yes"/>
      <point x="161" y="145"/>
      <point x="183" y="152"/>
      <point x="202" y="161" type="curve"/>
      <point x="219" y="141" type="line"/>
      <point x="239" y="233" type="line"/>
      <point x="216" y="220"/>
      <point x="195" y="213"/>
      <point x="174" y="213" type="curve" smooth="yes"/>
      <point x="138" y="213"/>
      <point x="122" y="233"/>
      <point x="124" y="269" type="curve"/>
      <point x="128" y="308"/>
      <point x="148" y="328"/>
      <point x="184" y="328" type="curve"/>
      <point x="226" y="328"/>
      <point x="236" y="297"/>
      <point x="231" y="241" type="curve"/>
      <point x="222" y="140"/>
      <point x="176" y="96"/>
      <point x="40" y="46" type="curve"/>
      <point x="38" y="36" type="line"/>
      <point x="99" y="-6" type="line"/>
      <point x="104" y="-6" type="line"/>
      <point x="235" y="48"/>
      <point x="316" y="137"/>
      <point x="325" y="243" type="curve"/>
      <point x="333" y="336"/>
      <point x="283" y="391"/>
      <point x="191" y="391" type="curve"/>
    </contour>
  </outline>
</glyph>
<glyph name="one.dnom" format="1">
  <advance width="274"/>
  <outline>
    <contour>
      <point x="24" y="344" type="line"/>
      <point x="14" y="266" type="line"/>
      <point x="20" y="261" type="line"/>
      <point x="105" y="278" type="line"/>
      <point x="86" y="126" type="line"/>
      <point x="67" y="0" type="line"/>
      <point x="171" y="0" type="line"/>
      <point x="184" y="137" type="line"/>
      <point x="218" y="380" type="line"/>
      <point x="205" y="390" type="line"/>
    </contour>
  </outline>
</glyph>
<glyph name="one.tf" format="1">
  <advance width="475"/>
  <outline>
    <contour>
      <point x="67" y="527" type="line"/>
      <point x="55" y="423" type="line"/>
      <point x="64" y="416" type="line"/>
      <point x="222" y="446" type="line"/>
      <point x="192" y="194" type="line"/>
      <point x="162" y="0" type="line"/>
      <point x="293" y="0" type="line"/>
      <point x="312" y="208" type="line"/>
      <point x="365" y="580" type="line"/>
      <point x="348" y="594" type="line"/>
    </contour>
  </outline>
</glyph>
<glyph name="puso" format="1">
  <advance width="137"/>
  <outline>
    <contour>
      <point x="52" y="530" type="line"/>
      <point x="27" y="248" type="line"/>
      <point x="36" y="237" type="line"/>
      <point x="98" y="249" type="line"/>
      <point x="160" y="526" type="line"/>
      <point x="153" y="538" type="line"/>
    </contour>
    <contour>
      <point x="71" y="327" type="move"/>
    </contour>
  </outline>
</glyph>
<glyph name="q.sups" format="1">
  <advance width="324"/>
  <outline>
    <contour>
      <point x="212" y="645" type="line"/>
      <point x="208" y="645" type="line"/>
      <point x="101" y="620"/>
      <point x="49" y="521"/>
      <point x="49" y="427" type="curve" smooth="yes"/>
      <point x="49" y="374"/>
      <point x="65" y="341"/>
      <point x="121" y="323" type="curve"/>
      <point x="133" y="323" type="line"/>
      <point x="163" y="354"/>
      <point x="190" y="396"/>
      <point x="212" y="441" type="curve"/>
      <point x="222" y="441" type="line"/>
      <point x="245" y="565" type="line"/>
      <point x="198" y="456"/>
      <point x="159" y="399"/>
      <point x="144" y="399" type="curve" smooth="yes"/>
      <point x="138" y="399"/>
      <point x="128" y="416"/>
      <point x="128" y="459" type="curve" smooth="yes"/>
      <point x="128" y="531"/>
      <point x="152" y="585"/>
      <point x="196" y="585" type="curve"/>
      <point x="266" y="571" type="line"/>
      <point x="309" y="631" type="line"/>
      <point x="212" y="645" type="line"/>
    </contour>
    <contour>
      <point x="320" y="650" type="line"/>
      <point x="242" y="632" type="line"/>
      <point x="237" y="567" type="line"/>
      <point x="189" y="197" type="line"/>
      <point x="273" y="203" type="line"/>
      <point x="278" y="276" type="line"/>
      <point x="326" y="645" type="line"/>
      <point x="320" y="650" type="line"/>
    </contour>
  </outline>
</glyph>
<glyph name="r.sups" format="1">
  <advance width="242"/>
  <outline>
    <contour>
      <point x="269" y="643" type="line"/>
      <point x="235" y="630"/>
      <point x="202" y="589"/>
      <point x="170" y="525" type="curve"/>
      <point x="150" y="525" type="line"/>
      <point x="138" y="429" type="line"/>
      <point x="182" y="504"/>
      <point x="214" y="543"/>
      <point x="246" y="543" type="curve"/>
      <point x="264" y="540" type="line"/>
      <point x="272" y="543" type="line"/>
      <point x="285" y="641" type="line"/>
      <point x="269" y="643" type="line"/>
    </contour>
    <contour>
      <point x="175" y="645" type="line"/>
      <point x="90" y="640" type="line"/>
      <point x="86" y="569" type="line"/>
      <point x="54" y="325" type="line"/>
      <point x="141" y="331" type="line"/>
      <point x="145" y="404" type="line"/>
      <point x="175" y="645" type="line"/>
    </contour>
    <contour>
      <point x="112" y="4" type="move" name="bottom"/>
    </contour>
    <contour>
      <point x="78" y="191" type="move" name="ogonek"/>
    </contour>
    <contour>
      <point x="77" y="183" type="move" name="top"/>
    </contour>
  </outline>
</glyph>
<glyph name="right" format="1">
  <advance width="420"/>
  <outline>
    <contour>
      <point x="88" y="82" type="line"/>
      <point x="384" y="230" type="line"/>
      <point x="88" y="378" type="line"/>
    </contour>
  </outline>
</glyph>
<glyph name="seven.tf" format="1">
  <advance width="476"/>
  <outline>
    <contour>
      <point x="63" y="480" type="line"/>
      <point x="69" y="469" type="line"/>
      <point x="163" y="479" type="line"/>
      <point x="338" y="479" type="line"/>
      <point x="64" y="36" type="line"/>
      <point x="69" y="15" type="line"/>
      <point x="170" y="-15" type="line"/>
      <point x="245" y="132" type="line"/>
      <point x="466" y="493" type="line"/>
      <point x="476" y="588" type="line"/>
      <point x="426" y="586" type="line"/>
      <point x="197" y="586" type="line"/>
      <point x="84" y="590" type="line"/>
    </contour>
  </outline>
</glyph>
<glyph name="seven.tosf" format="1">
  <advance width="475"/>
  <outline>
    <contour>
      <point x="52" y="400" type="line"/>
      <point x="58" y="388" type="line"/>
      <point x="152" y="398" type="line"/>
      <point x="329" y="398" type="line"/>
      <point x="52" y="-49" type="line"/>
      <point x="58" y="-69" type="line"/>
      <point x="159" y="-100" type="line"/>
      <point x="234" y="48" type="line"/>
      <point x="457" y="412" type="line"/>
      <point x="467" y="507" type="line"/>
      <point x="416" y="505" type="line"/>
      <point x="186" y="505" type="line"/>
      <point x="73" y="509" type="line"/>
    </contour>
  </outline>
</glyph>
<glyph name="three.lf" format="1">
  <advance width="439"/>
  <outline>
    <contour>
      <point x="181" y="596"/>
      <point x="125" y="576"/>
      <point x="66" y="537" type="curve"/>
      <point x="73" y="443" type="line"/>
      <point x="87" y="443" type="line"/>
      <point x="133" y="473"/>
      <point x="172" y="491"/>
      <point x="212" y="491" type="curve" smooth="yes"/>
      <point x="251" y="491"/>
      <point x="273" y="472"/>
      <point x="273" y="440" type="curve" smooth="yes"/>
      <point x="273" y="387"/>
      <point x="214" y="348"/>
      <point x="169" y="348" type="curve" smooth="yes"/>
      <point x="119" y="346" type="line"/>
      <point x="105" y="257" type="line"/>
      <point x="110" y="248" type="line"/>
      <point x="180" y="248" type="line"/>
      <point x="236" y="247"/>
      <point x="264" y="224"/>
      <point x="264" y="185" type="curve" smooth="yes"/>
      <point x="264" y="127"/>
      <point x="214" y="92"/>
      <point x="134" y="92" type="curve" smooth="yes"/>
      <point x="98" y="92"/>
      <point x="62" y="100"/>
      <point x="26" y="116" type="curve"/>
      <point x="15" y="107" type="line"/>
      <point x="10" y="3" type="line"/>
      <point x="41" y="-3"/>
      <point x="88" y="-8"/>
      <point x="122" y="-8" type="curve" smooth="yes"/>
      <point x="279" y="-8"/>
      <point x="390" y="77"/>
      <point x="390" y="191" type="curve" smooth="yes"/>
      <point x="390" y="255"/>
      <point x="356" y="289"/>
      <point x="295" y="312" type="curve"/>
      <point x="295" y="317" type="line"/>
      <point x="373" y="354"/>
      <point x="410" y="419"/>
      <point x="410" y="472" type="curve" smooth="yes"/>
      <point x="410" y="546"/>
      <point x="343" y="596"/>
      <point x="241" y="596" type="curve" smooth="yes"/>
    </contour>
  </outline>
</glyph>
<glyph name="three.tf" format="1">
  <advance width="476"/>
  <outline>
    <contour>
      <point x="199" y="596"/>
      <point x="143" y="576"/>
      <point x="83" y="537" type="curve"/>
      <point x="90" y="443" type="line"/>
      <point x="104" y="443" type="line"/>
      <point x="150" y="473"/>
      <point x="190" y="491"/>
      <point x="230" y="491" type="curve" smooth="yes"/>
      <point x="270" y="491"/>
      <point x="292" y="472"/>
      <point x="292" y="440" type="curve" smooth="yes"/>
      <point x="292" y="387"/>
      <point x="232" y="348"/>
      <point x="187" y="348" type="curve" smooth="yes"/>
      <point x="137" y="346" type="line"/>
      <point x="122" y="257" type="line"/>
      <point x="128" y="248" type="line"/>
      <point x="198" y="248" type="line"/>
      <point x="255" y="247"/>
      <point x="283" y="224"/>
      <point x="283" y="185" type="curve" smooth="yes"/>
      <point x="283" y="127"/>
      <point x="232" y="92"/>
      <point x="151" y="92" type="curve" smooth="yes"/>
      <point x="116" y="92"/>
      <point x="79" y="100"/>
      <point x="43" y="116" type="curve"/>
      <point x="32" y="107" type="line"/>
      <point x="27" y="3" type="line"/>
      <point x="59" y="-3"/>
      <point x="105" y="-8"/>
      <point x="140" y="-8" type="curve" smooth="yes"/>
      <point x="298" y="-8"/>
      <point x="409" y="77"/>
      <point x="409" y="191" type="curve" smooth="yes"/>
      <point x="409" y="255"/>
      <point x="374" y="289"/>
      <point x="313" y="312" type="curve"/>
      <point x="313" y="317" type="line"/>
      <point x="392" y="354"/>
      <point x="429" y="419"/>
      <point x="429" y="472" type="curve" smooth="yes"/>
      <point x="429" y="546"/>
      <point x="362" y="596"/>
      <point x="259" y="596" type="curve" smooth="yes"/>
    </contour>
  </outline>
</glyph>
<glyph name="two.dnom" format="1">
  <advance width="360"/>
  <outline>
    <contour>
      <point x="148" y="389"/>
      <point x="99" y="371"/>
      <point x="46" y="337" type="curve"/>
      <point x="54" y="261" type="line"/>
      <point x="66" y="261" type="line"/>
      <point x="99" y="290"/>
      <point x="138" y="307"/>
      <point x="166" y="307" type="curve" smooth="yes"/>
      <point x="191" y="307"/>
      <point x="204" y="294"/>
      <point x="204" y="277" type="curve" smooth="yes"/>
      <point x="204" y="248"/>
      <point x="171" y="215"/>
      <point x="120" y="165" type="curve" smooth="yes"/>
      <point x="12" y="62" type="line"/>
      <point x="5" y="2" type="line"/>
      <point x="10" y="-1" type="line"/>
      <point x="36" y="0" type="line"/>
      <point x="204" y="0" type="line"/>
      <point x="297" y="-4" type="line"/>
      <point x="317" y="75" type="line"/>
      <point x="313" y="82" type="line"/>
      <point x="245" y="77" type="line"/>
      <point x="149" y="77" type="line"/>
      <point x="147" y="80" type="line"/>
      <point x="209" y="145" type="line" smooth="yes"/>
      <point x="280" y="219"/>
      <point x="311" y="261"/>
      <point x="311" y="303" type="curve" smooth="yes"/>
      <point x="311" y="357"/>
      <point x="260" y="389"/>
      <point x="197" y="389" type="curve" smooth="yes"/>
    </contour>
  </outline>
</glyph>
<glyph name="two.lf" format="1">
  <advance width="497"/>
  <outline>
    <contour>
      <point x="211" y="594"/>
      <point x="141" y="562"/>
      <point x="78" y="510" type="curve"/>
      <point x="87" y="408" type="line"/>
      <point x="102" y="408" type="line"/>
      <point x="152" y="456"/>
      <point x="207" y="483"/>
      <point x="252" y="483" type="curve" smooth="yes"/>
      <point x="294" y="483"/>
      <point x="312" y="460"/>
      <point x="312" y="431" type="curve" smooth="yes"/>
      <point x="312" y="385"/>
      <point x="261" y="331"/>
      <point x="191" y="256" type="curve" smooth="yes"/>
      <point x="24" y="83" type="line"/>
      <point x="14" y="3" type="line"/>
      <point x="20" y="-2" type="line"/>
      <point x="60" y="0" type="line"/>
      <point x="303" y="0" type="line"/>
      <point x="427" y="-6" type="line"/>
      <point x="456" y="101" type="line"/>
      <point x="450" y="111" type="line"/>
      <point x="353" y="102" type="line"/>
      <point x="196" y="102" type="line" smooth="yes"/>
      <point x="194" y="107" type="line"/>
      <point x="300" y="222" type="line" smooth="yes"/>
      <point x="406" y="338"/>
      <point x="445" y="391"/>
      <point x="445" y="453" type="curve" smooth="yes"/>
      <point x="445" y="537"/>
      <point x="375" y="594"/>
      <point x="282" y="594" type="curve" smooth="yes"/>
    </contour>
  </outline>
</glyph>
<glyph name="two.tf" format="1">
  <advance width="475"/>
  <outline>
    <contour>
      <point x="203" y="594"/>
      <point x="134" y="562"/>
      <point x="72" y="510" type="curve"/>
      <point x="81" y="408" type="line"/>
      <point x="95" y="408" type="line"/>
      <point x="144" y="456"/>
      <point x="197" y="483"/>
      <point x="241" y="483" type="curve" smooth="yes"/>
      <point x="281" y="483"/>
      <point x="298" y="460"/>
      <point x="298" y="431" type="curve" smooth="yes"/>
      <point x="298" y="385"/>
      <point x="249" y="331"/>
      <point x="181" y="256" type="curve" smooth="yes"/>
      <point x="18" y="83" type="line"/>
      <point x="8" y="3" type="line"/>
      <point x="14" y="-2" type="line"/>
      <point x="53" y="0" type="line"/>
      <point x="289" y="0" type="line"/>
      <point x="411" y="-6" type="line"/>
      <point x="440" y="101" type="line"/>
      <point x="434" y="111" type="line"/>
      <point x="339" y="102" type="line"/>
      <point x="190" y="102" type="line" smooth="yes"/>
      <point x="189" y="107" type="line"/>
      <point x="290" y="222" type="line" smooth="yes"/>
      <point x="394" y="338"/>
      <point x="431" y="391"/>
      <point x="431" y="453" type="curve" smooth="yes"/>
      <point x="431" y="537"/>
      <point x="363" y="594"/>
      <point x="271" y="594" type="curve" smooth="yes"/>
    </contour>
  </outline>
</glyph>
<glyph name="v.sups" format="1">
  <advance width="303"/>
  <outline>
    <contour>
      <point x="234" y="631" type="line"/>
      <point x="241" y="617"/>
      <point x="245" y="604"/>
      <point x="245" y="590" type="curve" smooth="yes"/>
      <point x="245" y="569"/>
      <point x="238" y="547"/>
      <point x="225" y="520" type="curve" smooth="yes"/>
      <point x="173" y="414" type="line"/>
      <point x="166" y="414" type="line"/>
      <point x="157" y="588" type="line"/>
      <point x="155" y="645" type="line"/>
      <point x="70" y="639" type="line"/>
      <point x="106" y="328" type="line"/>
      <point x="201" y="328" type="line"/>
      <point x="296" y="498" type="line" smooth="yes"/>
      <point x="316" y="535"/>
      <point x="326" y="565"/>
      <point x="326" y="594" type="curve" smooth="yes"/>
      <point x="326" y="611"/>
      <point x="321" y="629"/>
      <point x="313" y="647" type="curve"/>
    </contour>
  </outline>
</glyph>
<glyph name="w.sups" format="1">
  <advance width="492"/>
  <outline>
    <contour>
      <point x="421" y="631" type="line"/>
      <point x="429" y="617"/>
      <point x="433" y="602"/>
      <point x="433" y="587" type="curve" smooth="yes"/>
      <point x="433" y="568"/>
      <point x="427" y="546"/>
      <point x="415" y="520" type="curve" smooth="yes"/>
      <point x="369" y="422" type="line"/>
      <point x="362" y="422" type="line"/>
      <point x="349" y="597" type="line"/>
      <point x="348" y="642" type="line"/>
      <point x="258" y="642" type="line"/>
      <point x="241" y="591" type="line"/>
      <point x="173" y="422" type="line"/>
      <point x="166" y="422" type="line"/>
      <point x="155" y="597" type="line"/>
      <point x="155" y="645" type="line"/>
      <point x="70" y="639" type="line"/>
      <point x="106" y="328" type="line"/>
      <point x="200" y="328" type="line"/>
      <point x="280" y="531" type="line"/>
      <point x="287" y="531" type="line"/>
      <point x="303" y="328" type="line"/>
      <point x="397" y="328" type="line"/>
      <point x="487" y="498" type="line" smooth="yes"/>
      <point x="505" y="534"/>
      <point x="515" y="563"/>
      <point x="515" y="590" type="curve" smooth="yes"/>
      <point x="515" y="609"/>
      <point x="510" y="627"/>
      <point x="501" y="647" type="curve"/>
    </contour>
    <contour>
      <point x="165" y="191" type="move" name="top"/>
    </contour>
  </outline>
</glyph>
<glyph name="x.sups" format="1">
  <advance width="325"/>
  <outline>
    <contour>
      <point x="245" y="487" type="line"/>
      <point x="354" y="642" type="line"/>
      <point x="264" y="642" type="line"/>
      <point x="250" y="613" type="line"/>
      <point x="203" y="546" type="line"/>
      <point x="173" y="616" type="line"/>
      <point x="163" y="648" type="line"/>
      <point x="72" y="639" type="line"/>
      <point x="136" y="491" type="line"/>
      <point x="24" y="328" type="line"/>
      <point x="117" y="328" type="line"/>
      <point x="134" y="363" type="line"/>
      <point x="183" y="438" type="line"/>
      <point x="213" y="363" type="line"/>
      <point x="222" y="324" type="line"/>
      <point x="317" y="331" type="line"/>
      <point x="245" y="487" type="line"/>
    </contour>
  </outline>
</glyph>
